<svg width="297" height="307" viewBox="0 0 297 307" fill="none" xmlns="http://www.w3.org/2000/svg">
<path d="M239.281 158.915L254.485 264.495L295.958 266.938C296.338 266.962 296.719 266.974 297.099 266.974C302.133 266.974 307.011 265.01 310.793 261.431C311.934 260.353 312.952 259.168 313.813 257.875C317.852 251.973 318.971 244.191 316.543 237.14L300.5 178.765C299.202 174.024 296.775 169.881 293.608 166.637C288.91 161.8 282.555 158.915 275.708 158.915H239.281Z" fill="white"/>
<g opacity="0.15">
<path d="M239.281 158.915L254.485 264.495L295.958 266.938C296.338 266.962 296.719 266.974 297.099 266.974C302.133 266.974 307.011 265.01 310.793 261.431C311.934 260.353 312.952 259.168 313.813 257.875C293.597 285.973 265.192 182.691 281.324 170.516C285.576 167.307 289.637 166.098 293.608 166.625C288.91 161.788 282.555 158.903 275.708 158.903H239.281V158.915Z" fill="#371A45"/>
</g>
<path d="M295.846 269.248L252.628 266.698L236.775 156.605H275.719C288.048 156.605 299.101 165.452 302.581 178.106L318.613 236.421C321.857 245.963 319.362 256.45 312.236 263.167C308.029 267.141 302.704 269.284 297.132 269.284C296.707 269.284 296.271 269.272 295.846 269.248ZM241.798 161.214L256.354 262.293L296.081 264.627C300.981 264.914 305.702 263.167 309.372 259.695C315.167 254.236 317.181 245.688 314.518 237.93L298.43 179.399C295.488 168.684 286.146 161.202 275.708 161.202H241.798V161.214Z" fill="#371A45"/>
<path d="M298.643 169.391C298.475 169.175 298.374 169.055 298.24 168.9L297.86 168.481C297.602 168.205 297.345 167.954 297.077 167.703C296.54 167.2 295.969 166.745 295.376 166.326C294.179 165.476 292.848 164.805 291.393 164.374C289.939 163.955 288.373 163.8 286.84 164.027C285.307 164.231 283.842 164.781 282.566 165.548C281.28 166.302 280.138 167.295 279.221 168.193C278.259 169.127 277.342 170.097 276.48 171.15C275.619 172.192 274.813 173.293 274.086 174.455C273.717 175.029 273.381 175.64 273.057 176.25C272.743 176.897 272.464 177.484 272.195 178.25C271.983 178.86 272.274 179.531 272.844 179.758C273.303 179.938 273.795 179.782 274.075 179.399L274.164 179.279C274.299 179.1 274.5 178.836 274.69 178.609C274.88 178.37 275.07 178.142 275.272 177.915C275.663 177.448 276.077 177.005 276.491 176.55C277.33 175.664 278.203 174.814 279.109 174C280.004 173.174 280.944 172.407 281.884 171.641C282.879 170.863 283.696 170.217 284.614 169.75C286.426 168.792 288.305 168.6 290.174 169.139C291.114 169.415 292.042 169.857 292.937 170.432C293.385 170.719 293.821 171.043 294.235 171.378C294.447 171.546 294.649 171.725 294.85 171.905L295.141 172.18L295.376 172.407L295.533 172.563C296.405 173.425 297.77 173.365 298.576 172.431C299.314 171.569 299.325 170.265 298.643 169.391Z" fill="#371A45"/>
<path d="M309.361 259.719L309.036 259.982L308.645 260.281C308.376 260.473 308.096 260.664 307.817 260.844C307.257 261.203 306.676 261.502 306.083 261.742C304.919 262.245 303.733 262.496 302.648 262.388C301.563 262.293 300.545 261.886 299.594 261.155C298.654 260.413 297.793 259.383 297.054 258.186C296.685 257.576 296.349 256.989 295.991 256.271C295.633 255.576 295.287 254.894 294.962 254.188C294.291 252.787 293.687 251.338 293.094 249.89C292.501 248.441 291.953 246.969 291.472 245.472C290.968 244 290.509 242.443 290.129 240.995L290.107 240.935C289.894 240.145 289.133 239.678 288.384 239.893C287.712 240.097 287.287 240.791 287.377 241.509C287.478 242.407 287.601 243.209 287.757 244.047C287.903 244.873 288.07 245.688 288.261 246.514C288.641 248.142 289.089 249.746 289.581 251.338C290.073 252.931 290.655 254.499 291.27 256.043C291.572 256.821 291.908 257.588 292.243 258.342C292.568 259.096 292.971 259.934 293.418 260.688C294.324 262.233 295.454 263.729 296.942 264.962C298.419 266.183 300.332 267.057 302.29 267.201C304.248 267.357 306.127 266.914 307.772 266.183C308.6 265.812 309.372 265.369 310.11 264.879C310.479 264.627 310.837 264.376 311.184 264.088C311.363 263.945 311.531 263.801 311.699 263.657C311.878 263.502 312.023 263.37 312.247 263.143C313.12 262.281 313.187 260.832 312.381 259.886C311.62 259 310.367 258.893 309.495 259.599L309.361 259.719Z" fill="#371A45"/>
<path d="M133.066 280.837C151.839 283.411 170.13 267.441 170.13 267.441L174.583 269.033L175.903 269.5C175.903 269.5 175.523 292.677 191.51 301.201C193.356 302.183 195.414 302.961 197.73 303.5C212.397 306.888 245.457 288.87 266.355 276.144C278.203 268.937 284.669 254.679 282.745 240.24C282.253 236.553 281.694 233.057 281.078 229.741C280.642 227.359 280.172 225.06 279.68 222.869C276.816 210.071 273.124 200.338 269.41 193.023C262.943 180.273 250.312 172.527 236.764 172.85L202.754 173.665L165.074 174.574L158.327 174.73C147.901 181.255 141.759 190.689 138.134 199.943C132.025 215.554 133.122 230.699 133.122 230.699C124.776 230.28 120.11 238.313 118.824 248.082C117.012 261.945 122.035 279.317 133.066 280.837Z" fill="white"/>
<path d="M197.272 305.751C187.393 303.464 180.188 296.413 176.429 285.351C174.415 279.413 173.912 273.882 173.789 271.176L170.544 270.015C166.796 273.031 152.79 283.423 137.284 283.423C135.796 283.423 134.296 283.327 132.786 283.124C120.994 281.508 115.221 264.95 116.463 249.878C117.47 237.547 123.03 229.454 130.884 228.472C130.839 224.809 131.086 217.35 133.133 208.706C136.948 192.652 145.271 180.213 157.22 172.731L157.701 172.431L236.697 170.54C236.988 170.528 237.279 170.528 237.581 170.528C251.711 170.528 264.565 178.669 271.289 191.934C277.744 204.672 282.32 220.822 284.871 239.929C286.941 255.445 280.094 270.458 267.418 278.167C245.77 291.349 217.767 306.23 201.691 306.23C200.091 306.218 198.614 306.062 197.272 305.751ZM267.496 194.125C261.41 182.117 249.652 174.838 236.798 175.149L158.92 177.005C132.976 193.706 135.236 230.136 135.259 230.507L135.449 233.117L133.01 232.997C125.067 232.59 121.464 241.665 120.759 250.285C119.719 262.963 124.53 277.341 133.334 278.551C150.955 280.969 168.587 265.812 168.766 265.657L169.683 264.855L178.085 267.86L178.062 269.548C178.062 269.619 177.995 276.539 180.524 283.914C183.802 293.468 189.742 299.31 198.178 301.249C208.739 303.692 232.569 294.066 265.281 274.145C276.402 267.369 282.41 254.2 280.597 240.576C278.113 222.007 273.706 206.372 267.496 194.125Z" fill="#371A45"/>
<path d="M122.203 275.318C118.969 270.446 116.944 263.861 116.519 256.786C115.602 241.509 122.169 229.035 131.466 228.4C140.774 227.766 148.762 239.235 149.679 254.511C150.105 261.598 148.896 268.398 146.267 273.678C143.459 279.305 139.364 282.585 134.744 282.896C134.498 282.908 134.252 282.92 134.006 282.92C129.642 282.92 125.481 280.239 122.203 275.318ZM131.746 233.009C125.089 233.464 120.099 244.215 120.826 256.498C121.196 262.736 122.941 268.482 125.715 272.66C128.277 276.503 131.388 278.503 134.453 278.299C137.53 278.084 140.371 275.677 142.452 271.511C144.712 266.986 145.741 261.06 145.372 254.822C144.656 242.826 138.671 233.009 132.182 233.009C132.036 232.985 131.891 232.997 131.746 233.009Z" fill="#371A45"/>
<path d="M142.475 254.128C145.372 254.128 147.274 253.876 147.498 253.852C148.885 253.661 149.881 252.296 149.702 250.812C149.523 249.327 148.247 248.274 146.86 248.453C146.636 248.477 132.014 250.309 120.994 242.755C119.808 241.94 118.242 242.312 117.481 243.581C116.721 244.85 117.067 246.526 118.253 247.34C126.689 253.122 136.623 254.128 142.475 254.128Z" fill="#010151"/>
<path d="M143.481 269.823C145.171 269.823 146.256 269.751 146.435 269.739C147.621 269.655 148.527 268.566 148.449 267.285C148.37 266.016 147.341 265.046 146.166 265.13C145.987 265.142 127.819 266.267 120.401 258.462C119.551 257.564 118.186 257.576 117.347 258.486C116.508 259.395 116.519 260.856 117.369 261.754C124.228 268.961 137.541 269.823 143.481 269.823Z" fill="#371A45"/>
<path d="M4.87786 162.986C5.33656 163.668 5.88475 164.315 6.50007 164.925L37.9038 196.531L30.3186 242.192C28.3495 254.044 39.5707 263.274 49.4382 257.923L90.2395 230.04C90.4745 230.04 131.041 257.923 131.041 257.923C140.908 263.274 152.13 254.044 150.161 242.192L142.575 196.531L168.553 170.396L173.979 164.925C182.314 156.545 177.951 141.328 166.741 139.64L122.583 133.02L102.098 90.1844C100.297 86.4133 97.3773 83.995 94.1217 82.9534C88.36 81.0618 81.5803 83.4802 78.3806 90.1844L58.5562 131.619L57.8849 133.02L51.6422 133.954H51.6198L13.7385 139.64C13.6937 139.652 13.6378 139.652 13.593 139.664C3.30041 141.328 -1.1299 154.426 4.87786 162.986Z" fill="#FFD770"/>
<path d="M4.87786 164.65C5.33656 165.332 5.88475 165.979 6.50007 166.589L37.9038 198.195L30.3186 243.856C28.3495 255.708 39.5707 264.938 49.4382 259.587L90.2395 231.704C90.4745 231.704 131.041 259.587 131.041 259.587C140.908 264.938 152.13 255.708 150.161 243.856L142.575 198.195L168.553 172.06L173.979 166.589C182.314 158.209 177.951 142.993 166.741 141.304L122.583 134.684L102.098 91.8485C100.297 88.0773 97.3773 85.659 94.1217 84.6175C88.36 82.7259 81.5803 85.1442 78.3806 91.8485L58.5562 133.283L57.8849 134.684L51.6422 135.618H51.6198L13.7385 141.304C13.6937 141.316 13.6378 141.316 13.593 141.328C3.30041 142.993 -1.1299 156.09 4.87786 164.65Z" fill="#FFD13E"/>
<g opacity="0.15">
<path d="M3.04303 150.655C4.45267 146.548 7.49571 143.112 11.7694 141.771C10.8408 146.021 11.0758 150.247 15.7186 154.581C25.5526 163.752 40.2755 176.203 46.3727 181.59C49.1137 184.02 48.6662 188.055 47.816 191.754C44.7394 205.246 37.5009 234.661 42.0431 238.552C46.4175 242.3 73.6035 222.953 84.903 212.214C88.2593 209.018 93.3273 209.065 96.6388 212.322C107.558 223.061 138 244.909 143.302 241.725C150.317 237.511 136.042 181.578 136.042 181.578C136.042 181.578 154.367 172.467 169.157 163.895L143.179 190.03L144.253 196.495L142.575 198.183L150.116 243.557C147.453 251.111 139.163 255.493 131.656 251.41C131.656 251.41 91.0897 223.528 90.8548 223.528L50.0535 251.41C41.6068 255.995 32.1756 249.878 30.8667 240.588L37.9149 198.171L37.2772 197.525L38.5302 190.018L7.12652 158.412C4.8778 156.198 3.56885 153.48 3.04303 150.655Z" fill="#371A45"/>
</g>
<g opacity="0.6">
<path d="M51.6422 133.966C61.3754 133.523 70.1129 127.453 74.4649 118.115C78.2911 109.914 82.7438 100.229 85.3505 94.0992C87.6216 88.7478 91.0114 85.2281 94.1216 82.9534C88.36 81.0618 81.5803 83.4802 78.3806 90.1844L57.896 133.02L51.6422 133.966Z" fill="white"/>
</g>
<path d="M175.903 271.81C177.1 271.81 178.062 270.769 178.062 269.5C178.062 269.428 178.085 262.855 180.378 256.438C183.265 248.357 188.322 244.251 195.403 244.251C215.541 244.251 224.704 262.161 224.793 262.353C225.353 263.478 226.662 263.897 227.713 263.298C228.765 262.7 229.156 261.299 228.597 260.174C228.183 259.336 218.103 239.63 195.403 239.63C189.944 239.63 185.357 241.581 181.777 245.424C173.811 253.972 173.744 268.877 173.744 269.512C173.755 270.781 174.717 271.81 175.903 271.81Z" fill="#371A45"/>
<path d="M174.315 275.031C173.173 264.124 175.556 253.601 180.68 246.873C183.858 242.695 187.863 240.264 192.26 239.821C203.995 238.66 215.116 252.5 217.007 270.697C218.148 281.603 215.765 292.127 210.641 298.855C207.464 303.033 203.458 305.463 199.062 305.906C198.603 305.954 198.133 305.978 197.674 305.978C186.453 305.978 176.127 292.51 174.315 275.031ZM192.651 244.431C189.429 244.754 186.442 246.609 184.014 249.794C179.606 255.576 177.581 264.831 178.599 274.528C180.233 290.235 189.239 302.267 198.67 301.321C201.892 300.998 204.879 299.142 207.307 295.958C211.715 290.175 213.74 280.921 212.722 271.224C211.144 256.091 202.731 244.383 193.692 244.383C193.345 244.371 192.998 244.395 192.651 244.431Z" fill="#371A45"/>
<path d="M219.602 240.552C266.4 240.552 298.486 218.954 299.896 217.997C303.028 215.854 303.946 211.388 301.943 208.036C299.941 204.684 295.768 203.702 292.635 205.845C292.109 206.192 259.106 228.149 213.035 225.982C209.332 225.79 206.166 228.891 206.009 232.866C205.841 236.84 208.728 240.216 212.442 240.384C214.859 240.504 217.253 240.552 219.602 240.552Z" fill="white"/>
<g opacity="0.2">
<path d="M211.155 233.955C213.572 234.075 215.966 234.123 218.316 234.123C265.113 234.123 297.2 212.525 298.609 211.568C300.176 210.49 301.182 208.85 301.552 207.042C301.686 207.222 301.809 207.413 301.932 207.617C303.935 210.969 303.028 215.435 299.885 217.578C298.475 218.547 266.389 240.133 219.591 240.133C217.242 240.133 214.847 240.073 212.431 239.965C208.717 239.785 205.83 236.421 205.998 232.447C206.02 232.028 206.076 231.609 206.155 231.214C207.329 232.806 209.108 233.859 211.155 233.955Z" fill="#010151"/>
</g>
<path d="M212.341 242.695C209.97 242.587 207.777 241.485 206.166 239.618C204.566 237.738 203.738 235.308 203.839 232.77C203.939 230.22 204.969 227.873 206.736 226.149C208.493 224.437 210.764 223.552 213.125 223.671C258.323 225.79 291.158 204.109 291.472 203.906C295.6 201.08 301.115 202.373 303.756 206.791C306.396 211.209 305.188 217.111 301.059 219.936C299.694 220.87 267.049 242.862 219.602 242.862C217.186 242.862 214.747 242.802 212.341 242.695ZM293.776 207.797C292.467 208.682 262.574 228.436 219.535 228.436C217.365 228.436 215.161 228.388 212.934 228.28C211.726 228.209 210.563 228.676 209.656 229.549C208.75 230.435 208.213 231.645 208.168 232.961C208.112 234.266 208.538 235.523 209.365 236.493C210.193 237.463 211.323 238.026 212.543 238.085C214.892 238.193 217.264 238.253 219.613 238.253C265.807 238.253 297.423 216.967 298.744 216.057C300.869 214.597 301.496 211.556 300.131 209.281C299.258 207.82 297.781 207.018 296.271 207.018C295.398 207.018 294.548 207.27 293.776 207.797Z" fill="#371A45"/>
<path d="M211.569 266.818C212.89 266.818 213.695 266.77 213.852 266.77C215.038 266.698 215.955 265.609 215.888 264.34C215.821 263.071 214.803 262.089 213.617 262.161C213.427 262.173 194.296 263.167 179.416 253.745C178.387 253.098 177.067 253.457 176.463 254.559C175.858 255.66 176.194 257.073 177.223 257.719C190.268 265.968 205.797 266.818 211.569 266.818Z" fill="#371A45"/>
<path d="M212.174 289.529C213.102 289.529 213.684 289.505 213.829 289.505C215.015 289.457 215.944 288.379 215.899 287.11C215.854 285.841 214.847 284.848 213.662 284.896C213.415 284.908 189.306 285.794 178.018 273.199C177.19 272.277 175.825 272.241 174.964 273.127C174.102 274.013 174.069 275.474 174.896 276.396C185.827 288.595 206.188 289.529 212.174 289.529Z" fill="#371A45"/>
<path d="M170.13 269.751C170.757 269.751 171.383 269.464 171.809 268.901C172.558 267.907 172.413 266.459 171.495 265.657C170.88 265.118 156.661 252.296 163.105 227.933C163.429 226.712 162.769 225.431 161.617 225.084C160.476 224.737 159.278 225.443 158.954 226.676C151.704 254.056 168.072 268.626 168.777 269.236C169.168 269.572 169.649 269.751 170.13 269.751Z" fill="#371A45"/>
<path d="M34.3461 258.51C29.4794 254.643 27.13 248.238 28.2041 241.785L35.5879 197.357L5.02327 166.613C0.514654 162.076 -1.11874 155.3 0.771969 148.931C2.62912 142.693 7.47336 138.264 13.4364 137.366L56.4864 130.913L76.4563 89.1429C79.1861 83.4322 84.3324 80.0322 90.2395 80.0322C96.1354 80.0322 101.293 83.4442 104.023 89.1429L123.993 130.913L167.031 137.366C172.994 138.264 177.85 142.693 179.696 148.931C181.587 155.3 179.964 162.076 175.456 166.613L144.902 197.369L152.286 241.797C153.36 248.25 151 254.655 146.144 258.521C141.367 262.317 135.359 262.867 130.068 259.994L129.877 259.874C115.803 250.201 95.1733 236.05 90.2731 232.77L50.6017 259.874L50.4115 259.982C48.1628 261.203 45.791 261.802 43.4416 261.802C40.2531 261.802 37.087 260.7 34.3461 258.51ZM89.076 228.101L89.255 227.993C90.3626 227.395 90.7989 227.67 93.1707 229.274C94.3006 230.028 95.9005 231.118 97.8247 232.435C101.662 235.045 106.752 238.54 111.854 242.024C121.464 248.609 131.052 255.205 132.115 255.924C135.896 257.935 140.17 257.516 143.571 254.81C147.117 251.997 148.829 247.316 148.046 242.599L140.259 195.705L172.513 163.249C175.803 159.933 176.988 154.988 175.601 150.331C174.236 145.734 170.813 142.597 166.45 141.939L121.185 135.151L100.185 91.2379C98.2051 87.1076 94.4908 84.6414 90.2395 84.6414C85.9882 84.6414 82.2739 87.1076 80.2937 91.2379L59.3057 135.151L14.0405 141.939C9.67733 142.597 6.25391 145.734 4.88902 150.331C3.50175 154.988 4.68764 159.945 7.97681 163.249L40.2308 195.705L32.4442 242.599C31.661 247.316 33.3727 251.997 36.9192 254.81C40.3203 257.516 44.5939 257.923 48.3754 255.924L89.076 228.101Z" fill="#371A45"/>
<path d="M124.283 145.938C132.171 159.035 143.191 170.073 156.728 177.687C159.491 179.243 162.344 180.644 165.297 181.901C166.729 182.512 168.206 183.086 169.694 183.637C174.192 185.265 178.734 186.475 183.276 187.289C187.192 188.007 191.118 188.426 195.023 188.57C199.733 188.749 204.421 188.522 209.03 187.911C210.708 187.684 212.386 187.408 214.042 187.085C244.416 181.147 271.076 158.544 281.951 125.49C297.983 76.7998 273.717 23.884 227.758 7.29088C218.908 4.10635 209.88 2.47817 200.986 2.31056C199.945 2.28662 198.905 2.28662 197.853 2.31056C195.068 2.35845 192.293 2.55 189.541 2.87324C183.186 3.62747 176.944 5.12396 170.947 7.2789C164.951 9.43385 159.178 12.2592 153.752 15.6952C152.029 16.7846 150.339 17.9459 148.673 19.167C146.189 20.9987 143.795 22.9501 141.479 25.0572C129.967 35.4967 120.815 49.2045 115.479 65.4265C106.26 93.4527 110.377 122.856 124.283 145.938Z" fill="white"/>
<path d="M195.012 188.809C191.04 188.653 187.08 188.222 183.242 187.516C178.655 186.69 174.068 185.457 169.627 183.853C167.994 183.254 166.55 182.679 165.219 182.117C162.321 180.884 159.424 179.459 156.627 177.891C143.414 170.456 132.16 159.442 124.104 146.057C109.561 121.91 106.35 92.495 115.289 65.3547C120.457 49.6595 129.463 35.6643 141.345 24.8896C143.593 22.8424 146.01 20.8551 148.549 18.9874C150.172 17.7903 151.883 16.617 153.64 15.5156C159.077 12.0677 164.872 9.23034 170.869 7.07539C176.921 4.8965 183.198 3.41199 189.507 2.65776C192.248 2.33451 195.056 2.14296 197.842 2.09508C198.939 2.07113 199.99 2.07113 200.975 2.09508C210.059 2.26268 219.087 3.93875 227.814 7.08736C250.189 15.1684 268.156 32.0009 278.393 54.4961C288.552 76.8238 289.883 102.061 282.141 125.573C271.636 157.514 245.546 181.171 214.064 187.325C212.397 187.648 210.708 187.923 209.041 188.151C205.405 188.629 201.747 188.869 198.111 188.869C197.081 188.869 196.041 188.845 195.012 188.809ZM197.853 2.56198C195.079 2.60987 192.293 2.80142 189.563 3.12466C183.287 3.86692 177.044 5.35144 171.014 7.51835C165.051 9.66133 159.278 12.4867 153.864 15.9226C152.118 17.0241 150.418 18.1853 148.807 19.3825C146.278 21.2501 143.862 23.2255 141.635 25.2607C129.81 35.9876 120.838 49.9109 115.703 65.5343C106.808 92.5429 110.008 121.802 124.474 145.83L124.295 145.95L124.474 145.83C132.495 159.155 143.683 170.097 156.828 177.496C159.614 179.064 162.489 180.477 165.376 181.698C166.696 182.26 168.128 182.823 169.761 183.422C174.18 185.014 178.745 186.247 183.309 187.073C187.136 187.767 191.074 188.21 195.023 188.354C199.643 188.534 204.342 188.306 208.996 187.696C210.663 187.468 212.341 187.193 213.997 186.87C245.323 180.752 271.278 157.203 281.738 125.43C289.447 102.037 288.115 76.9195 278.002 54.7116C267.81 32.3242 249.932 15.5635 227.668 7.53032C218.987 4.40566 210.003 2.72959 200.964 2.56198C200.471 2.55001 199.957 2.53804 199.42 2.53804C198.916 2.53804 198.39 2.55001 197.853 2.56198Z" fill="#371A45"/>
<path d="M281.951 125.502C271.076 158.556 244.416 181.171 214.042 187.097C212.386 187.42 210.708 187.696 209.03 187.923C204.42 188.534 199.733 188.761 195.023 188.582C191.118 188.426 187.192 188.019 183.276 187.301C178.722 186.486 174.191 185.265 169.683 183.649C168.195 183.098 166.729 182.524 165.286 181.913C162.333 180.656 159.48 179.243 156.716 177.699C143.179 170.085 132.16 159.047 124.272 145.95C119.943 138.754 116.553 130.949 114.237 122.76C122.035 135.067 132.663 145.447 145.574 152.714C148.337 154.27 151.19 155.683 154.143 156.928C155.575 157.538 157.041 158.113 158.54 158.664C163.037 160.292 167.58 161.501 172.122 162.327C176.037 163.045 179.964 163.465 183.869 163.608C188.579 163.788 193.266 163.56 197.876 162.95C199.565 162.722 201.232 162.447 202.888 162.124C233.262 156.198 259.922 133.595 270.797 100.528C277.151 81.2414 277.174 61.2962 272.027 43.2066C286.829 66.5399 291.416 96.757 281.951 125.502Z" fill="#E8E8E8"/>
<path d="M194.967 190.365C190.928 190.21 186.901 189.767 182.996 189.06C178.331 188.222 173.677 186.965 169.146 185.337C167.49 184.727 166.025 184.152 164.671 183.577C161.717 182.332 158.786 180.884 155.944 179.279C142.508 171.713 131.074 160.531 122.874 146.919C108.084 122.365 104.817 92.4471 113.913 64.8519C119.16 48.8933 128.322 34.6707 140.405 23.7164C142.687 21.6332 145.148 19.61 147.733 17.7184C149.389 16.4973 151.123 15.3121 152.901 14.1867C158.428 10.6789 164.324 7.79371 170.41 5.61482C176.563 3.40002 182.929 1.89156 189.351 1.12536C192.136 0.790141 194.989 0.598591 197.809 0.550703C198.927 0.526759 200.013 0.526759 201.008 0.550703C210.238 0.71831 219.412 2.43029 228.284 5.61482C251.028 13.8276 269.298 30.9474 279.713 53.8257C290.051 76.5245 291.404 102.192 283.528 126.1C272.844 158.568 246.341 182.608 214.344 188.857C212.655 189.18 210.943 189.467 209.242 189.695C205.55 190.186 201.825 190.425 198.133 190.425C197.07 190.425 196.007 190.401 194.967 190.365ZM197.876 4.11833C195.146 4.16622 192.405 4.3458 189.72 4.66904C183.544 5.39933 177.402 6.8599 171.473 8.9909C165.599 11.098 159.927 13.8754 154.602 17.2515C152.89 18.341 151.212 19.4783 149.623 20.6515C147.14 22.4832 144.768 24.4227 142.564 26.434C130.929 36.9812 122.113 50.6771 117.067 66.0371C108.33 92.5788 111.462 121.359 125.693 144.968C133.58 158.065 144.578 168.828 157.511 176.107C160.252 177.651 163.082 179.04 165.924 180.249C167.222 180.8 168.631 181.363 170.231 181.949C174.583 183.517 179.069 184.727 183.567 185.541C187.326 186.235 191.208 186.654 195.09 186.798C199.643 186.965 204.264 186.75 208.828 186.151C210.462 185.924 212.129 185.66 213.751 185.337C244.562 179.315 270.103 156.162 280.385 124.903C287.959 101.905 286.65 77.2188 276.715 55.3821C266.691 33.3657 249.115 16.8924 227.232 9.00287C218.685 5.92609 209.847 4.28594 200.952 4.11833C200.471 4.10636 199.968 4.09439 199.453 4.09439C198.927 4.09439 198.413 4.10636 197.876 4.11833Z" fill="#371A45"/>
<path d="M194.945 190.88C190.883 190.724 186.845 190.282 182.918 189.563C178.23 188.713 173.543 187.456 168.989 185.816C167.322 185.205 165.846 184.619 164.503 184.044C161.538 182.787 158.585 181.339 155.721 179.722C142.206 172.12 130.716 160.867 122.471 147.183C107.603 122.497 104.325 92.4111 113.454 64.6722C118.734 48.6299 127.942 34.3234 140.092 23.3092C142.385 21.2142 144.869 19.1789 147.464 17.2754C149.131 16.0543 150.876 14.8571 152.666 13.7197C158.227 10.2 164.145 7.29083 170.276 5.09997C176.44 2.88517 182.851 1.36473 189.295 0.59853C192.103 0.263317 194.967 0.0717659 197.797 0.0238783C198.927 -6.55465e-05 200.013 -6.55465e-05 201.008 0.0238783C210.283 0.191485 219.513 1.90347 228.429 5.12391C251.297 13.3726 269.656 30.5882 280.138 53.5982C290.532 76.4286 291.897 102.228 283.976 126.28C273.236 158.915 246.587 183.098 214.411 189.384C212.711 189.707 210.988 189.994 209.276 190.222C205.562 190.713 201.825 190.964 198.111 190.964C197.059 190.94 195.996 190.928 194.945 190.88ZM197.887 4.63307C195.18 4.68095 192.45 4.86053 189.776 5.18377C183.634 5.91406 177.525 7.36266 171.63 9.48169C165.79 11.5768 160.14 14.3423 154.848 17.6944C153.148 18.7719 151.481 19.9092 149.903 21.0705C147.431 22.8902 145.07 24.8297 142.888 26.817C131.32 37.3044 122.561 50.9165 117.526 66.1926C108.833 92.5907 111.955 121.192 126.096 144.681C133.938 157.694 144.869 168.409 157.723 175.64C160.453 177.172 163.261 178.549 166.092 179.758C167.378 180.309 168.788 180.86 170.377 181.446C174.706 183.003 179.159 184.212 183.634 185.014C187.371 185.696 191.23 186.115 195.09 186.271C199.61 186.439 204.208 186.223 208.75 185.624C210.384 185.409 212.028 185.134 213.65 184.822C244.293 178.836 269.689 155.814 279.915 124.735C287.444 101.869 286.146 77.3146 276.268 55.6095C266.299 33.7248 248.824 17.3472 227.064 9.49366C218.573 6.42885 209.779 4.80067 200.919 4.63307C200.438 4.62109 199.945 4.60912 199.431 4.60912C198.927 4.62109 198.413 4.62109 197.887 4.63307Z" fill="#371A45"/>
<path d="M138.716 164.195C192.696 198.099 261.03 165.404 260.482 99.4866C260.113 54.6398 218.271 20.7114 177.514 24.1593C147.856 26.6614 119.842 42.8115 110.612 92.495C110.612 92.495 109.728 115.122 116.463 129.608C123.187 144.094 132.059 156.964 132.059 156.964L138.716 164.195Z" fill="#371A45"/>
<path d="M260.482 99.4746C261.03 165.392 192.685 198.099 138.716 164.183L137.362 162.71C194.743 168.876 248.914 128.518 249.54 61.8469C256.309 72.8371 260.37 85.6351 260.482 99.4746Z" fill="#220F2D"/>
<path d="M183.254 189.599L182.918 189.563C178.23 188.713 173.543 187.456 168.989 185.816C167.322 185.206 165.846 184.619 164.503 184.044C161.538 182.787 158.585 181.339 155.721 179.722C142.206 172.12 130.716 160.867 122.471 147.183C107.603 122.497 104.325 92.4112 113.454 64.6723C118.734 48.6299 127.942 34.3235 140.092 23.3093L140.259 23.1537L140.45 23.0459C150.664 17.0959 162.735 13.5043 176.328 12.355C200.796 10.2839 226.617 20.041 245.401 38.4538C262.305 55.0229 271.725 76.6442 271.904 99.307C272.106 123.993 264.006 145.794 248.5 162.351C232.244 179.71 208.896 189.611 184.316 189.611C183.97 189.611 183.612 189.611 183.254 189.599ZM176.675 16.9522C163.776 18.0417 152.342 21.4177 142.709 26.9847C131.231 37.4481 122.527 51.0123 117.526 66.2047C108.833 92.6027 111.955 121.204 126.096 144.693C133.938 157.706 144.869 168.421 157.723 175.652C160.453 177.184 163.261 178.561 166.092 179.77C167.378 180.321 168.788 180.872 170.377 181.458C174.65 183.003 179.058 184.188 183.466 185.002C207.229 185.241 229.816 175.796 245.457 159.095C260.135 143.424 267.787 122.772 267.597 99.3549C267.418 77.985 258.502 57.561 242.492 41.8538C226.158 25.8474 204.275 16.7008 182.873 16.7008C180.803 16.6888 178.734 16.7726 176.675 16.9522Z" fill="#371A45"/>
<path d="M299.225 92.2795C301.462 110.477 293.172 127.214 280.687 129.656C268.201 132.098 256.264 119.324 254.026 101.115C254.015 101.007 254.004 100.875 253.993 100.768C251.901 82.702 260.18 66.1568 272.576 63.7385C282.219 61.8469 291.539 69.054 296.316 80.8104C297.692 84.2703 298.71 88.1372 299.225 92.2795Z" fill="white"/>
<path d="M299.225 92.2795C301.462 110.477 293.172 127.214 280.687 129.656C268.201 132.098 256.264 119.324 254.026 101.115C254.015 101.007 254.004 100.875 253.993 100.768C255.593 102.372 257.953 103.785 260.773 102.599C265.706 100.516 273.359 87.0358 273.359 87.0358C273.359 87.0358 283.293 84.2703 296.305 80.8104C297.692 84.2703 298.71 88.1372 299.225 92.2795Z" fill="#E8E8E8"/>
<path d="M265.181 127.704C258.099 122.185 253.243 112.608 251.867 101.426C249.484 82.0555 258.58 64.1335 272.162 61.4758C277.632 60.4103 283.126 61.8709 288.037 65.7019C295.119 71.2209 299.963 80.7985 301.35 91.9802L299.213 92.2795L301.35 91.9802C303.733 111.351 294.638 129.273 281.056 131.93C279.892 132.158 278.729 132.266 277.565 132.266C273.28 132.266 269.051 130.721 265.181 127.704ZM272.945 66.0131C261.589 68.2279 254.06 83.8513 256.152 100.815C257.36 110.609 261.679 119.264 267.72 123.969C271.658 127.034 276.01 128.219 280.284 127.381C291.639 125.166 299.169 109.543 297.077 92.5788C295.868 82.7858 291.55 74.1301 285.509 69.4251C282.387 66.9948 279.02 65.7498 275.63 65.7498C274.735 65.7498 273.84 65.8336 272.945 66.0131Z" fill="#371A45"/>
<path d="M285.148 124.793C295.454 124.406 303.421 112.27 302.943 97.686C302.465 83.1023 293.722 71.5935 283.416 71.9805C273.11 72.3674 265.143 84.5036 265.621 99.0873C266.099 113.671 274.842 125.18 285.148 124.793Z" fill="white"/>
<path d="M279.657 124.113C269.566 120.246 263.413 105.58 265.941 91.4056C267.351 83.5041 271.188 77.1231 276.48 73.8906C280.407 71.4843 284.703 71.0653 288.898 72.6695C298.99 76.5364 305.143 91.202 302.614 105.377C301.205 113.278 297.367 119.659 292.076 122.892C289.704 124.34 287.209 125.071 284.681 125.071C283.014 125.071 281.324 124.747 279.657 124.113ZM302.167 105.281C304.651 91.3337 298.632 76.9076 288.742 73.1244C284.681 71.5681 280.508 71.9751 276.693 74.3097C271.513 77.4702 267.754 83.7435 266.378 91.5013C263.894 105.449 269.913 119.875 279.803 123.658C283.864 125.214 288.037 124.807 291.852 122.473C297.032 119.3 300.791 113.039 302.167 105.281Z" fill="#371A45"/>
<path d="M268.156 112.021C266.422 107.376 265.885 102.204 266.389 97.188C271.2 107.424 280.989 110.465 289.055 103.844C294.268 99.5704 297.546 92.2436 298.33 84.4978C298.632 85.1443 298.922 85.8267 299.18 86.533C303.599 98.3612 300.243 113.661 291.673 120.701C283.114 127.74 272.587 123.837 268.156 112.021Z" fill="#E8E8E8"/>
<path d="M276.055 123.718C270.338 119.276 266.243 110.956 265.113 101.462C263.2 85.4555 270.181 70.6822 280.687 68.5392C284.748 67.7131 288.842 68.7906 292.546 71.6639C298.262 76.1054 302.357 84.4259 303.487 93.9197C305.4 109.926 298.419 124.699 287.914 126.842C287.03 127.022 286.146 127.118 285.251 127.118C282.074 127.118 278.941 125.957 276.055 123.718ZM281.481 73.0766C273.18 74.7766 267.754 87.2393 269.376 100.887C270.36 109.136 273.806 116.283 278.572 119.994C281.28 122.102 284.233 122.904 287.086 122.317C295.387 120.617 300.813 108.154 299.191 94.5063C298.206 86.2576 294.761 79.1104 289.995 75.3991C287.858 73.735 285.576 72.885 283.305 72.885C282.7 72.885 282.085 72.9449 281.481 73.0766Z" fill="#371A45"/>
<g opacity="0.5">
<path d="M200.415 40.5369C200.415 40.5369 162.12 46.3792 142.564 71.5681C142.542 71.592 142.519 71.616 142.497 71.6519C138.391 76.9555 135.695 83.3365 134.677 90.0887C133.323 99.0197 133.625 105.377 134.095 110.956C135.538 127.932 139.219 135.582 139.219 135.582C129.318 127.549 123.299 117.899 121.968 103.773C121.845 102.384 121.755 100.935 121.71 99.4507C121.699 99.1035 121.699 98.7683 121.699 98.4331C121.688 98.4331 121.699 98.4211 121.699 98.4091C121.811 95.3922 122.113 91.4415 122.796 87.0119C124.854 73.6512 131.03 57.2138 145.853 47.732C173.576 29.9897 201.59 38.6214 200.415 40.5369Z" fill="white"/>
</g>
<g opacity="0.5">
<path d="M236.986 93.5989C242.788 91.232 245.433 83.5335 242.893 76.4039C240.353 69.2743 233.591 65.4134 227.788 67.7804C221.986 70.1473 219.341 77.8458 221.881 84.9754C224.421 92.105 231.184 95.9659 236.986 93.5989Z" fill="white"/>
</g>
<g opacity="0.5">
<path d="M243.312 111.618C245.724 110.348 246.573 106.914 245.209 103.947C243.845 100.981 240.785 99.6053 238.373 100.875C235.961 102.145 235.112 105.579 236.476 108.546C237.84 111.512 240.9 112.887 243.312 111.618Z" fill="white"/>
</g>
<path d="M78.1792 160.005H78.1904C79.3763 159.993 80.3384 158.975 80.3384 157.706C80.3384 154.246 78.403 147.59 71.0751 147.159C64.6534 146.776 61.767 152.39 61.1516 155.407C60.8943 156.652 61.6327 157.886 62.7962 158.161C63.9597 158.436 65.1121 157.646 65.3694 156.401C65.4813 155.91 66.5665 151.528 70.8513 151.768C75.7179 152.055 76.02 156.772 76.0312 157.718C76.0424 158.987 77.0045 160.005 78.1792 160.005Z" fill="#371A45"/>
<path d="M92.1302 176.382C97.9142 176.382 100.096 170.863 100.454 167.87C100.599 166.601 99.7602 165.452 98.5855 165.296C97.4108 165.141 96.3367 166.026 96.1801 167.284C96.1242 167.762 95.4977 171.761 92.1078 171.761C92.0519 171.761 91.9959 171.761 91.9288 171.761C88.9865 171.641 88.6397 167.008 88.6285 166.817C88.539 165.548 87.5209 164.59 86.335 164.674C85.1491 164.757 84.2541 165.847 84.3324 167.116C84.5226 170.229 86.3126 176.155 91.7722 176.37C91.8841 176.382 92.0071 176.382 92.1302 176.382Z" fill="#371A45"/>
<path d="M108.643 163.381C109.829 163.381 110.791 162.351 110.802 161.082C110.814 160.136 111.127 155.419 115.982 155.132C120.413 154.881 121.419 159.562 121.464 159.765C121.722 161.01 122.874 161.8 124.037 161.525C125.201 161.25 125.939 160.017 125.682 158.771C125.055 155.755 122.169 150.14 115.759 150.523C108.431 150.954 106.495 157.61 106.495 161.07C106.484 162.339 107.446 163.381 108.643 163.381Z" fill="#371A45"/>
<path d="M53.4658 177.113C57.3646 177.113 60.5252 175.113 60.5252 172.647C60.5252 170.181 57.3646 168.181 53.4658 168.181C49.567 168.181 46.4064 170.181 46.4064 172.647C46.4064 175.113 49.567 177.113 53.4658 177.113Z" fill="#F75050"/>
<path d="M134.375 179.83C138.274 179.83 141.434 177.831 141.434 175.365C141.434 172.898 138.274 170.899 134.375 170.899C130.476 170.899 127.315 172.898 127.315 175.365C127.315 177.831 130.476 179.83 134.375 179.83Z" fill="#F75050"/>
<path d="M183.444 231.716C193.434 231.836 203.268 230.388 211.905 228.424C212.431 228.292 212.945 228.173 213.449 228.065C213.55 228.041 213.639 228.017 213.74 228.005C229.38 224.258 240.579 219.014 240.579 219.014L251.677 206.839L267.429 189.575C258.882 177.627 247.963 181.578 247.963 181.578C180.893 208.706 163.082 179.519 154.893 181.578C148.717 183.134 152.644 192.221 152.644 192.221C152.644 192.221 147.856 191.383 143.437 192.891C140.349 193.945 137.451 196.136 136.467 200.554C134.106 211.28 154.244 231.381 183.444 231.716Z" fill="white"/>
<path d="M184.596 234.039C213.483 234.039 240.288 221.672 241.429 221.133C242.526 220.618 243.018 219.266 242.548 218.092C242.078 216.919 240.803 216.392 239.706 216.895C239.438 217.027 212.554 229.418 184.574 229.418C184.204 229.418 183.835 229.418 183.466 229.406C164.022 229.178 148.549 219.828 141.848 210.658C139.219 207.054 138.022 203.57 138.57 201.08C140.45 192.544 152.174 194.484 152.286 194.496L156.291 195.19L154.58 191.239C154.009 189.898 153.069 186.594 153.83 184.93C154.009 184.547 154.345 184.068 155.363 183.805C156.593 183.494 159.155 184.834 162.12 186.391C173.431 192.317 196.981 204.636 248.656 183.745C249.294 183.529 258.356 180.716 265.695 190.964C266.422 191.982 267.776 192.173 268.716 191.395C269.667 190.617 269.846 189.168 269.119 188.163C259.732 175.053 247.761 179.196 247.247 179.387L247.18 179.411C197.204 199.62 175.612 188.318 164.011 182.248C160.006 180.153 157.108 178.633 154.378 179.327C151.783 179.986 150.541 181.65 149.959 182.919C148.986 185.062 149.154 187.612 149.579 189.647C149.523 189.647 149.467 189.647 149.411 189.647C143.716 189.647 136.176 191.778 134.364 200.015C133.502 203.93 134.945 208.718 138.447 213.495C145.786 223.528 162.545 233.764 183.421 234.015C183.813 234.027 184.204 234.039 184.596 234.039Z" fill="#371A45"/>
<path d="M199.498 232.997C200.236 232.997 200.952 232.59 201.355 231.872C211.223 214.082 201.847 193.047 201.445 192.161C200.919 191.012 199.632 190.545 198.558 191.096C197.484 191.658 197.048 193.035 197.563 194.184C197.697 194.484 206.289 213.938 197.652 229.514C197.048 230.615 197.384 232.028 198.402 232.674C198.737 232.89 199.118 232.997 199.498 232.997Z" fill="#371A45"/>
</svg>
