<svg width="237" height="343" viewBox="0 0 237 343" fill="none" xmlns="http://www.w3.org/2000/svg">
<path d="M87.0874 284.091C89.6749 289.848 86.8502 294.689 77.5138 298.505C68.1773 302.322 67.3148 307.917 67.2178 308.952C66.862 312.445 67.7137 342.859 84.4892 340.562C96.3268 338.945 96.4023 318.644 96.4023 318.644C96.4023 318.644 126.978 318.86 135.042 267.143" fill="white"/>
<g opacity="0.35">
<path d="M84.4999 340.562C96.3375 338.945 96.413 318.644 96.413 318.644C96.413 318.644 126.988 318.86 135.053 267.143L103.669 278.237C105.717 302.106 90.0629 311.464 90.0629 311.464C90.0629 311.464 96.3807 332.293 80.112 336.918C75.7348 338.158 73.363 333.317 71.4871 332.336C74.0746 337.608 78.139 341.425 84.4999 340.562Z" fill="#371A45"/>
</g>
<path d="M106.59 306.936C108.261 306.936 109.889 306.763 111.506 306.408C123.948 303.658 129.834 291.325 130.082 290.796C130.395 290.117 130.104 289.319 129.435 289.007C128.756 288.694 127.958 288.985 127.646 289.654C127.592 289.772 122.04 301.33 110.913 303.777C102.925 305.534 93.9548 302.278 84.241 294.117C83.6696 293.643 82.8179 293.707 82.3435 294.279C81.8692 294.85 81.9338 295.702 82.5052 296.176C90.99 303.335 99.0758 306.936 106.59 306.936Z" fill="#371A45"/>
<path d="M82.7104 342.309C83.3573 342.309 84.0257 342.266 84.7049 342.169C95.9065 340.638 97.6853 325.156 97.9764 320.153C100.78 319.83 106.936 318.569 113.663 313.588C121.803 307.561 132.39 294.645 136.648 267.38C136.788 266.485 136.174 265.655 135.29 265.515C134.406 265.375 133.565 265.989 133.425 266.873C129.339 293.05 119.366 305.297 111.722 310.957C103.604 316.973 96.4994 316.995 96.4132 316.995L94.7744 316.984L94.7637 318.623C94.7637 318.817 94.548 337.533 84.2629 338.934C81.104 339.365 78.4842 338.524 76.2525 336.357C68.9429 329.296 68.6195 311.27 68.8351 309.103C68.9321 308.176 69.8162 303.41 78.1284 300.004C84.0472 297.578 87.605 294.721 88.985 291.249C89.9553 288.834 89.8151 286.193 88.5645 283.411C88.198 282.592 87.2277 282.226 86.4083 282.592C85.5889 282.959 85.2224 283.929 85.5889 284.748C86.473 286.721 86.5916 288.446 85.9555 290.042C84.9313 292.608 81.8802 294.947 76.8886 296.985C67.0993 300.995 65.7625 307.022 65.5792 308.769C65.3312 311.248 65.6331 330.654 73.9777 338.697C76.4681 341.112 79.4006 342.309 82.7104 342.309Z" fill="#371A45"/>
<path d="M89.9335 206.553C88.974 206.973 65.2556 210.412 53.2238 218.595C43.1974 225.42 46.4857 272.339 55.8113 279.088C64.4578 285.341 86.9687 281.341 86.9687 281.341L89.9335 206.553Z" fill="white"/>
<path d="M89.9335 206.553L89.4484 218.703L86.9579 281.33C86.9579 281.33 76.0474 283.271 66.4954 282.333C62.3339 281.934 58.4311 280.975 55.8005 279.077C46.4749 272.339 43.1866 225.42 53.2131 218.584C65.2556 210.402 88.974 206.962 89.9335 206.553Z" fill="white"/>
<g opacity="0.35">
<path d="M89.4485 218.703L86.9581 281.331C86.9581 281.331 86.9473 281.331 86.9365 281.331C86.8826 281.341 86.7209 281.363 86.4622 281.406C86.4083 281.417 86.3544 281.428 86.2897 281.428C86.2789 281.428 86.2681 281.428 86.2573 281.438C86.2034 281.449 86.1387 281.46 86.0848 281.471C85.9339 281.492 85.7722 281.514 85.5889 281.546C85.5458 281.546 85.4919 281.557 85.4487 281.568C85.4056 281.579 85.3625 281.579 85.3194 281.589C85.2655 281.6 85.2008 281.6 85.1469 281.611C84.5539 281.697 83.8316 281.794 83.0014 281.891C82.9044 281.902 82.7966 281.913 82.6888 281.924C82.3761 281.956 82.0527 281.999 81.7185 282.031C81.6107 282.042 81.4921 282.053 81.3735 282.064C81.2441 282.085 81.1039 282.096 80.9638 282.107C80.7913 282.118 80.6296 282.139 80.4463 282.161C80.3924 282.172 80.3493 282.172 80.2954 282.172C80.166 282.182 80.0474 282.193 79.918 282.204C79.5515 282.236 79.1849 282.269 78.8076 282.301C78.7968 282.301 78.786 282.301 78.7645 282.301C78.5057 282.323 78.2362 282.344 77.9667 282.355C77.9559 282.355 77.9559 282.355 77.9451 282.355C77.751 282.366 77.557 282.387 77.3629 282.398C77.2443 282.409 77.1149 282.409 76.9856 282.42C76.5112 282.452 76.0261 282.473 75.5409 282.495C75.2283 282.506 74.9048 282.517 74.5814 282.527C74.2903 282.538 73.9992 282.549 73.6973 282.549C73.3955 282.549 73.1044 282.56 72.8025 282.56C72.5006 282.56 72.1988 282.56 71.8969 282.56C71.595 282.56 71.2931 282.56 70.9913 282.549C70.6894 282.549 70.3875 282.538 70.0857 282.527C69.7838 282.517 69.4819 282.506 69.1801 282.495C68.8782 282.484 68.5763 282.463 68.2744 282.452C68.2313 282.452 68.1774 282.441 68.1343 282.441C67.8755 282.42 67.6276 282.409 67.3688 282.387C67.067 282.366 66.7651 282.333 66.474 282.312C62.3125 281.913 58.4097 280.953 55.7791 279.056C50.9169 275.541 47.6933 261.084 47.1542 247.09C48.6528 255.219 51.0786 261.849 54.162 264.081C55.2401 264.857 56.5338 265.482 57.9785 265.968C59.6603 266.539 61.353 266.884 63.024 267.013C61.8058 250.324 65.1048 227.802 72.3281 223.997C76.5112 221.797 81.8478 220.234 87.1953 219.124C87.9607 218.994 88.7154 218.843 89.4485 218.703Z" fill="#371A45"/>
</g>
<path d="M72.2309 284.22C79.8531 284.22 86.7423 283.023 87.249 282.937L88.5427 282.711L91.6693 204.009L89.3621 205.022C89.1141 205.087 88.2948 205.248 87.4215 205.41C80.6402 206.725 62.6142 210.229 52.3074 217.248C46.6042 221.129 45.58 234.131 45.4722 241.527C45.2566 257.149 48.7065 275.951 54.8518 280.403C58.9917 283.39 65.87 284.22 72.2309 284.22ZM85.3839 279.929C80.5755 280.641 63.606 282.711 56.76 277.762C52.178 274.452 48.5017 257.882 48.7281 241.581C48.8898 230.401 50.9598 222.11 54.1402 219.943C63.8863 213.302 82.0633 209.776 88.036 208.612C88.1007 208.601 88.1546 208.59 88.2193 208.58L85.3839 279.929ZM89.2974 205.043L89.2758 205.054C89.2866 205.054 89.2866 205.054 89.2974 205.043Z" fill="#371A45"/>
<path d="M51.5528 221.28C53.019 221.56 54.5068 221.884 55.9838 222.218C57.4608 222.552 58.9271 222.908 60.3933 223.296C61.8487 223.684 63.3042 224.094 64.7273 224.568C66.1504 225.032 67.5627 225.538 68.8888 226.164H68.8996C69.3632 226.379 69.9238 226.185 70.1394 225.711C70.3442 225.258 70.1718 224.73 69.7405 224.493C68.339 223.738 66.8943 223.134 65.4496 222.574C64.005 222.002 62.5387 221.506 61.0725 221.021C59.6062 220.536 58.1292 220.094 56.6522 219.673C55.1644 219.253 53.6982 218.843 52.1781 218.466C51.4018 218.272 50.6256 218.746 50.4315 219.512C50.2375 220.288 50.7118 221.064 51.4773 221.258C51.4989 221.269 51.5312 221.269 51.5528 221.28Z" fill="#371A45"/>
<path d="M46.8306 249.117L59.8111 250.162C60.9647 250.259 61.9242 251.122 62.1183 252.265C62.8514 256.459 64.0481 266.226 59.9512 269.428C56.5552 272.08 51.0676 271.735 47.8656 268.997C44.2863 265.935 43.9844 256.351 44.0707 251.607C44.0922 250.141 45.3536 248.998 46.8306 249.117Z" fill="white"/>
<g opacity="0.35">
<path d="M62.1183 252.276C62.8514 256.469 64.0481 266.237 59.9512 269.439C56.5552 272.102 51.0676 271.746 47.8656 269.008C45.6663 267.121 44.7067 262.766 44.3078 258.604C44.8792 260.696 45.7849 262.388 46.9276 263.499C53.4394 269.892 58.3664 262.421 58.3664 262.421C58.3664 262.421 59.2073 264.243 59.8758 264.35C62.7004 264.792 62.1614 255.952 61.784 251.381C61.9457 251.65 62.0643 251.941 62.1183 252.276Z" fill="#371A45"/>
</g>
<path d="M54.2807 272.889C56.7065 272.889 59.0999 272.178 60.9542 270.722C65.5793 267.1 64.6737 257.429 63.725 251.985C63.4016 250.109 61.8383 248.696 59.9408 248.545L46.9604 247.5C45.8068 247.403 44.664 247.801 43.8123 248.567C42.9606 249.343 42.4646 250.443 42.4431 251.596C42.3245 258.302 42.9821 266.981 46.8094 270.248C48.8471 271.994 51.5747 272.889 54.2807 272.889ZM46.7016 250.745L59.6821 251.79C60.1025 251.823 60.4475 252.135 60.5122 252.545C61.5795 258.658 61.7305 265.968 58.9489 268.145C56.2321 270.269 51.6501 270.086 48.9225 267.757C46.7555 265.903 45.548 259.876 45.699 251.64C45.7098 251.295 45.893 251.068 46.0008 250.971C46.1087 250.885 46.3458 250.723 46.7016 250.745Z" fill="#371A45"/>
<path d="M54.1294 272.522C54.4313 272.35 54.5714 272.242 54.7655 272.091C54.9488 271.951 55.1213 271.811 55.2722 271.66C55.5956 271.369 55.8975 271.056 56.167 270.733C56.7061 270.086 57.1912 269.396 57.5578 268.663C58.334 267.207 58.7976 265.644 59.024 264.092C59.2504 262.528 59.2504 260.976 59.175 259.477C59.1426 258.723 59.0779 257.957 58.9701 257.202C58.8515 256.437 58.7437 255.715 58.4634 254.906C58.3879 254.68 58.14 254.561 57.9136 254.647C57.7087 254.723 57.5901 254.938 57.644 255.143L57.6548 255.197C57.795 255.812 57.8489 256.577 57.8597 257.289C57.8705 258.011 57.8597 258.744 57.8058 259.466C57.7087 260.933 57.5362 262.356 57.1912 263.714C56.8354 265.073 56.2748 266.345 55.5201 267.445C55.1536 268.005 54.7116 268.49 54.248 268.932C54.0108 269.148 53.7736 269.353 53.5256 269.525C53.3963 269.622 53.2777 269.698 53.1483 269.773C53.0405 269.838 52.868 269.924 52.8465 269.935C52.0271 270.043 51.4557 270.797 51.5635 271.606C51.6713 272.425 52.426 272.997 53.2346 272.889C53.4286 272.867 53.6119 272.803 53.7628 272.716L54.1294 272.522Z" fill="#371A45"/>
<path d="M129.726 221.679C129.726 221.679 134.276 219.501 140.475 214.725C152.863 205.151 171.827 185.152 174.155 151.235C174.457 146.815 184.527 138.438 177.649 134.19C175.557 132.896 173.045 133.996 173.045 133.996C173.045 133.996 175.46 130.46 172.42 127.527C167.622 122.891 159.278 131.743 159.278 131.743C159.278 131.743 160.28 126.083 158.857 122.32C157.854 119.689 154.879 118.665 153.089 119.064C148.022 120.175 143.753 131.754 140.95 138.503C138.308 144.853 137.996 151.03 137.651 157.391C137.112 167.299 136.508 177.627 126.934 189.724C123.721 193.777 119.506 198.025 113.954 202.521L124.584 215.437L129.726 221.679Z" fill="white"/>
<g opacity="0.35">
<path d="M129.726 221.679C129.726 221.679 134.276 219.501 140.475 214.725C152.863 205.151 171.827 185.152 174.155 151.235C174.414 147.494 181.659 140.928 179.718 136.422C177.573 135.107 173.67 145.467 172.053 147.354C168.894 151.009 166.49 149.208 165.649 148.281C162.447 144.766 175.643 133.09 173.562 129.543C170.899 125.005 171.331 135.807 160.485 143.279C157.057 145.64 153.359 141.92 153.423 142.308C155.353 153.801 166.123 155.418 166.016 163.827C165.681 188.991 146.06 198.047 135.581 206.143C129.392 210.93 124.832 213.097 124.832 213.097L119.7 206.866L115.258 201.464C114.838 201.82 114.417 202.165 113.975 202.521L124.605 215.437L129.726 221.679Z" fill="#371A45"/>
</g>
<path d="M129.727 223.307C129.964 223.307 130.201 223.253 130.427 223.145C130.859 222.94 141.058 217.992 151.806 206.65C161.725 196.192 173.929 178.102 175.773 151.332C175.848 150.254 177.013 148.389 178.134 146.578C180.074 143.473 182.274 139.947 181.508 136.691C181.142 135.106 180.128 133.802 178.49 132.789C177.487 132.174 176.441 131.948 175.503 131.926C175.751 130.201 175.395 128.142 173.541 126.341C172.258 125.102 170.695 124.509 168.894 124.541C166.113 124.606 163.31 126.244 161.24 127.808C161.261 125.889 161.089 123.625 160.367 121.727C159.116 118.439 155.407 116.865 152.734 117.458C147.699 118.568 144.087 126.482 140.227 135.947C139.958 136.616 139.688 137.263 139.44 137.866C136.713 144.421 136.368 150.89 136.034 157.132C135.322 170.199 134.6 183.708 112.93 201.249C112.229 201.82 112.121 202.844 112.693 203.545C113.264 204.246 114.288 204.354 114.989 203.782C137.78 185.336 138.589 170.447 139.3 157.316C139.635 151.062 139.958 145.165 142.47 139.128C142.729 138.513 142.987 137.866 143.268 137.187C145.672 131.312 149.683 121.479 153.456 120.649C154.437 120.433 156.626 121.016 157.348 122.891C158.394 125.63 157.952 129.996 157.693 131.441C157.564 132.152 157.919 132.864 158.566 133.187C159.213 133.511 159.989 133.371 160.485 132.853C161.79 131.473 165.865 127.883 169.002 127.808C169.919 127.786 170.652 128.066 171.299 128.692C173.25 130.578 171.87 132.821 171.708 133.08C171.309 133.683 171.353 134.481 171.816 135.031C172.28 135.581 173.045 135.775 173.714 135.484C173.724 135.484 175.493 134.761 176.808 135.57C177.681 136.109 178.199 136.724 178.36 137.435C178.813 139.376 176.991 142.287 175.395 144.853C173.994 147.095 172.679 149.208 172.538 151.106C170.77 176.905 159.008 194.327 149.456 204.397C139.117 215.307 129.134 220.137 129.037 220.191C128.228 220.579 127.883 221.549 128.271 222.369C128.541 222.973 129.123 223.307 129.727 223.307Z" fill="#371A45"/>
<path d="M32.3086 322.223C43.2083 325.393 46.4318 310.882 46.4318 310.882C46.4318 310.882 65.6869 325.264 82.5486 319.755C96.715 315.119 106.386 297.405 106.386 297.405C106.386 297.405 166.49 277.967 140.465 214.725C138.675 210.391 136.486 205.841 133.845 201.087C131.818 197.432 129.511 193.648 126.934 189.734C125.576 187.686 124.153 185.605 122.633 183.492L78.0097 207.502L72.8671 210.272L71.5842 210.962C71.692 211.275 71.7998 211.588 71.9076 211.911C74.8616 220.924 74.5705 229.42 73.2121 236.923C71.4871 246.454 68.048 254.4 67.3256 259.801C66.9267 262.776 66.8513 265.461 66.9267 267.682C67.0561 271.649 67.6383 274.129 67.6383 274.129C66.7542 276.813 63.6816 284.921 56.7386 284.964C54.3344 284.975 51.9626 283.864 49.6123 282.484C45.4615 280.059 41.3971 276.835 37.311 277.6C31.4245 278.711 27.2846 283.961 25.0098 290.107C23.5866 293.945 22.9074 298.138 22.9829 301.89C23.1015 308.37 24.3413 319.916 32.3086 322.223Z" fill="white"/>
<g opacity="0.35">
<path d="M30.2385 321.339C30.8746 321.706 31.5646 322.008 32.3085 322.224C43.2082 325.393 46.4318 310.882 46.4318 310.882C46.4318 310.882 65.6868 325.264 82.5485 319.755C96.7149 315.119 106.386 297.405 106.386 297.405C106.386 297.405 164.884 278.485 141.467 217.259C154.232 262.572 119.97 282.172 107.776 287.584C105.146 288.748 102.903 290.624 101.297 293.007C97.6097 298.473 89.8365 308.294 79.8101 311.572C62.9484 317.081 47.2296 300.942 40.0386 303.454C38.3783 304.036 45.7633 321.437 30.2385 321.339Z" fill="#371A45"/>
</g>
<path d="M35.3166 324.315C37.1709 324.315 38.9067 323.841 40.5023 322.892C44.3188 320.628 46.3888 316.208 47.3483 313.502C51.6499 316.326 62.6251 322.655 74.2687 322.655C77.1904 322.655 80.1552 322.256 83.0661 321.307C96.4023 316.952 105.685 301.912 107.507 298.753C111.927 297.19 137.521 287.109 145.995 261.45C153.197 239.619 145.791 213.065 123.98 182.543C123.452 181.81 122.439 181.638 121.706 182.166C120.972 182.694 120.8 183.708 121.328 184.441C142.492 214.057 149.758 239.608 142.912 260.394C134.373 286.344 106.181 295.767 105.9 295.853L105.286 296.058L104.973 296.629C104.876 296.802 95.432 313.836 82.0635 318.202C79.5407 319.021 76.9424 319.377 74.3657 319.377C60.7492 319.377 47.5747 309.696 47.413 309.577L45.3969 308.068L44.847 310.526C44.8363 310.591 43.2299 317.491 38.842 320.089C37.0523 321.145 35.0686 321.329 32.7722 320.66C25.9585 318.676 24.7403 308.036 24.6217 301.858C24.4384 292.177 29.3546 280.759 37.6237 279.196C40.3621 278.679 43.3916 280.554 46.5936 282.538C49.7956 284.522 53.1054 286.581 56.7063 286.581C56.717 286.581 56.7386 286.581 56.7494 286.581C62.1615 286.56 66.7004 282.204 69.1908 274.625L69.331 274.194L69.2232 273.752C69.2124 273.698 67.8971 267.844 68.9428 260.006C69.2663 257.601 70.1827 254.572 71.25 251.057C74.4089 240.632 78.7429 226.347 73.1259 210.402C72.824 209.55 71.8969 209.108 71.0452 209.41C70.1934 209.712 69.7514 210.639 70.0533 211.491C75.3145 226.423 71.1638 240.115 68.1235 250.109C67.0238 253.753 66.0643 256.901 65.7085 259.564C64.7382 266.809 65.633 272.393 65.9457 274.01C64.6843 277.654 61.9028 283.293 56.7279 283.314C56.7171 283.314 56.7063 283.314 56.6955 283.314C54.0218 283.314 51.1109 281.514 48.297 279.767C44.7069 277.536 40.9874 275.239 37.0092 275.994C26.9396 277.902 21.1394 290.667 21.355 301.923C21.5922 314.299 25.2146 321.868 31.8558 323.787C33.0417 324.143 34.1953 324.315 35.3166 324.315Z" fill="#371A45"/>
<path d="M141.273 142.847C141.154 135.344 147.494 129.339 149.078 128.681C150.286 128.174 155.105 129.932 153.854 133.737C152.604 137.543 150.394 138.934 151.116 139.947C151.838 140.961 156.054 143.483 155.59 149.003" fill="white"/>
<path d="M141.543 142.847C142.103 141.101 142.729 139.57 143.505 138.115C144.27 136.659 145.144 135.29 146.135 133.996C146.631 133.349 147.138 132.713 147.677 132.109C148.216 131.516 148.788 130.924 149.348 130.492C149.467 130.406 149.639 130.277 149.672 130.266L149.715 130.234C149.715 130.234 149.661 130.266 149.639 130.266C149.542 130.277 149.585 130.277 149.607 130.266C149.726 130.255 150.06 130.287 150.34 130.384C150.944 130.557 151.526 130.934 151.893 131.333C152.626 132.185 152.475 132.746 151.698 134.438C151.354 135.139 150.955 135.807 150.491 136.508C150.254 136.864 150.017 137.23 149.726 137.716C149.65 137.856 149.585 137.953 149.51 138.136C149.434 138.298 149.359 138.46 149.294 138.718C149.219 138.912 149.176 139.268 149.186 139.592C149.219 139.958 149.305 140.357 149.488 140.67C149.693 141.058 149.79 141.112 149.941 141.295C150.071 141.435 150.146 141.5 150.265 141.608L150.782 142.082C151.106 142.373 151.407 142.632 151.698 142.901C152.27 143.44 152.755 144.012 153.208 144.605C153.661 145.208 154.049 145.845 154.405 146.567C154.771 147.289 155.019 148.087 155.332 148.971L155.343 148.993C155.396 149.144 155.558 149.219 155.709 149.165C155.785 149.133 155.838 149.079 155.871 149.014C155.968 148.799 156.065 148.572 156.14 148.335L156.259 147.979L156.334 147.623C156.378 147.386 156.442 147.138 156.464 146.88C156.485 146.632 156.485 146.384 156.496 146.125C156.475 145.111 156.248 144.076 155.828 143.128C155.418 142.179 154.803 141.327 154.157 140.583C153.833 140.217 153.499 139.85 153.176 139.538L152.733 139.096C152.69 139.042 152.604 138.955 152.593 138.934C152.604 138.934 152.529 138.837 152.658 139.02C152.712 139.139 152.787 139.311 152.777 139.462C152.798 139.559 152.755 139.689 152.766 139.678C152.766 139.678 152.744 139.71 152.755 139.689C152.766 139.678 152.777 139.656 152.777 139.635C152.777 139.613 152.841 139.527 152.863 139.473C153.025 139.193 153.283 138.826 153.521 138.438C154.016 137.651 154.512 136.778 154.89 135.861C155.084 135.398 155.256 134.934 155.407 134.46C155.483 134.255 155.558 133.899 155.623 133.608C155.698 133.317 155.709 132.972 155.72 132.648C155.741 131.991 155.601 131.301 155.353 130.676C155.224 130.374 155.051 130.083 154.879 129.802C154.685 129.554 154.512 129.274 154.286 129.069C154.07 128.854 153.855 128.638 153.618 128.465C153.391 128.271 153.143 128.12 152.906 127.969C152.421 127.668 151.903 127.43 151.364 127.247C151.095 127.161 150.814 127.075 150.513 127.021C150.372 126.988 150.211 126.967 150.038 126.945C149.876 126.924 149.715 126.902 149.499 126.924C149.294 126.935 149.122 126.924 148.809 127.01C148.68 127.042 148.518 127.085 148.41 127.129L148.162 127.247C147.796 127.42 147.612 127.571 147.364 127.722C146.48 128.336 145.79 128.983 145.111 129.684C144.777 130.039 144.443 130.384 144.152 130.762C143.839 131.128 143.559 131.516 143.289 131.915C142.2 133.489 141.338 135.258 140.896 137.133C140.454 139.009 140.4 141.015 141.014 142.826C141.068 142.977 141.23 143.052 141.37 143.009C141.446 142.998 141.51 142.934 141.543 142.847Z" fill="#371A45"/>
<path d="M145.489 222.875L143.516 252.728L129.252 264.275L121.716 270.377C121.716 270.377 113.932 272.091 112.035 272.49C109.469 273.029 108.66 270.01 108.703 268.016C108.779 264.598 108.52 261.428 108.089 258.496C107.41 253.774 106.299 249.677 105.523 246.259C104.876 243.446 106.202 240.556 108.768 239.23C124.056 231.338 138.071 221.991 138.071 221.991L145.489 222.875Z" fill="white"/>
<path d="M111.452 274.161C111.754 274.161 112.056 274.129 112.369 274.064C114.255 273.676 121.748 272.016 122.072 271.951C122.32 271.897 122.546 271.789 122.74 271.627L144.539 253.968C144.884 253.688 145.111 253.267 145.132 252.814L147.105 222.961C147.159 222.099 146.534 221.355 145.682 221.247L138.265 220.374C137.877 220.331 137.499 220.417 137.176 220.633C137.036 220.73 123.064 230.023 108.035 237.775C104.822 239.435 103.151 243.057 103.959 246.604C104.132 247.359 104.315 248.146 104.52 248.966C105.749 254.087 107.269 260.458 107.107 267.973C107.064 269.73 107.56 272.037 109.059 273.288C109.727 273.87 110.547 274.161 111.452 274.161ZM120.994 268.878C119.42 269.223 113.328 270.56 111.711 270.905C111.323 270.991 111.183 270.873 111.107 270.808C110.633 270.409 110.299 269.223 110.32 268.048C110.493 260.124 108.919 253.526 107.647 248.222C107.452 247.413 107.269 246.637 107.097 245.893C106.612 243.791 107.603 241.645 109.512 240.664C123.096 233.646 135.818 225.398 138.47 223.662L143.774 224.288L141.952 251.898L120.994 268.878Z" fill="#371A45"/>
<g opacity="0.3">
<path d="M129.252 264.264L121.716 270.366C121.716 270.366 113.932 272.08 112.035 272.479C110.072 272.889 109.134 271.229 108.822 269.536C108.725 269.008 108.692 268.479 108.703 268.016C108.779 264.598 108.52 261.428 108.089 258.496C109.091 259.305 109.35 257.601 111.377 255.122C113.77 252.189 113.544 248.664 114.913 246.896C118.913 241.731 126.762 257.655 129.252 264.264Z" fill="#371A45"/>
</g>
<path d="M144.475 242.12C145.025 244.481 145.973 247.348 145.973 247.348C145.973 247.348 141.294 248.923 140.906 249.02C139.623 249.321 137.942 246.82 137.144 243.424C136.357 240.039 136.756 237.042 138.039 236.74C138.977 236.524 142.728 235.209 142.728 235.209C142.728 235.209 144.259 241.214 144.475 242.12Z" fill="white"/>
<path d="M141.198 242.02C140.408 238.634 141.154 235.565 142.864 235.166C144.575 234.767 146.602 237.188 147.392 240.575C148.182 243.961 147.436 247.029 145.725 247.428C144.015 247.827 141.988 245.406 141.198 242.02Z" fill="white"/>
<path d="M145.834 224.19C146.028 226.853 146.362 231.069 146.567 235.5C146.858 241.839 146.912 248.599 145.963 251.779C144.324 257.321 130.923 265.903 121.706 270.366C119.291 271.541 116.466 270.043 116.487 267.358C116.509 262.959 116.261 258.766 115.927 255.175C115.614 251.769 115.226 248.901 114.913 246.885C114.622 245.041 115.603 243.23 117.296 242.443C132.034 235.618 140.346 227.403 143.753 223.49C144.454 222.703 145.758 223.134 145.834 224.19Z" fill="white"/>
<g opacity="0.3">
<path d="M146.761 243.381C146.739 246.195 146.599 248.739 146.254 250.593C146.178 251.035 146.081 251.434 145.974 251.79C144.335 257.332 130.934 265.913 121.716 270.377C119.301 271.552 116.476 270.053 116.498 267.369C116.52 262.97 116.272 258.776 115.937 255.186C117.953 257.299 123.29 261.213 132.982 257.407C135.494 256.415 137.597 254.615 139.375 252.351C138.373 251.542 137.338 249.558 136.777 247.133C135.979 243.747 136.389 240.75 137.672 240.459C138.459 240.276 141.198 239.338 142.082 239.025C142.211 238.961 142.34 238.907 142.48 238.874C143.386 238.659 144.389 239.252 145.24 240.351C145.844 241.128 146.383 242.173 146.761 243.381Z" fill="#371A45"/>
</g>
<g opacity="0.3">
<path d="M146.76 243.381C146.383 242.174 145.844 241.128 145.24 240.341C145.769 238.68 146.211 237.042 146.577 235.5C146.696 238.152 146.771 240.88 146.76 243.381Z" fill="#371A45"/>
</g>
<path d="M119.97 272.404C120.789 272.404 121.63 272.21 122.417 271.832C128.681 268.792 145.413 259.359 147.515 252.243C149.143 246.734 148.033 231.867 147.494 224.719L147.44 224.072C147.354 222.94 146.599 221.97 145.521 221.614C144.443 221.258 143.267 221.582 142.524 222.433C138.966 226.53 130.88 234.379 116.617 240.988C114.277 242.066 112.919 244.599 113.307 247.144C113.911 251.025 114.902 258.82 114.859 267.358C114.848 269.126 115.689 270.668 117.156 271.595C118.018 272.134 118.988 272.404 119.97 272.404ZM144.302 225.323C144.798 231.921 145.855 246.475 144.421 251.327C143.084 255.833 131.225 263.973 121.005 268.921C120.293 269.266 119.506 269.245 118.891 268.857C118.6 268.673 118.104 268.231 118.104 267.38C118.148 258.615 117.123 250.626 116.509 246.648C116.336 245.526 116.94 244.405 117.975 243.92C131.958 237.451 140.281 229.775 144.302 225.323Z" fill="#371A45"/>
<path d="M144.475 242.12C145.025 244.481 145.973 247.349 145.973 247.349C145.973 247.349 141.294 248.923 140.906 249.02C139.623 249.322 137.941 246.82 137.144 243.424C136.357 240.039 136.756 237.042 138.039 236.74C138.976 236.524 142.728 235.209 142.728 235.209C142.728 235.209 144.259 241.214 144.475 242.12Z" fill="#22A7F0"/>
<g opacity="0.8">
<path d="M142.718 235.22C142.718 235.22 144.259 241.214 144.475 242.12C145.025 244.481 145.973 247.349 145.973 247.349C145.973 247.349 145.876 247.381 145.725 247.435C145.445 246.486 145.122 245.333 144.874 244.287C144.658 243.371 143.116 237.376 143.116 237.376C143.116 237.376 139.365 238.681 138.427 238.907C137.381 239.144 136.917 241.171 137.208 243.737C137.187 243.629 137.154 243.532 137.133 243.424C136.346 240.039 136.745 237.042 138.028 236.74C138.976 236.524 142.718 235.22 142.718 235.22Z" fill="white"/>
</g>
<g opacity="0.3">
<path d="M144.755 243.241C145.294 245.3 145.963 247.349 145.963 247.349C145.963 247.349 141.284 248.923 140.885 249.02C139.602 249.322 137.92 246.82 137.122 243.435C136.853 242.292 136.723 241.193 136.712 240.222C137.575 243.047 139.041 245.009 140.184 244.75C140.507 244.664 143.526 243.661 144.755 243.241Z" fill="#371A45"/>
</g>
<path d="M140.659 250.119C140.82 250.119 140.971 250.098 141.144 250.065C141.543 249.968 144.896 248.847 146.319 248.373C146.879 248.179 147.181 247.575 146.998 247.014C146.987 246.982 146.06 244.168 145.532 241.883C145.316 240.977 143.839 235.198 143.774 234.95C143.699 234.659 143.505 234.411 143.235 234.271C142.966 234.131 142.653 234.109 142.373 234.206C141.349 234.562 138.524 235.533 137.791 235.705C137.166 235.856 136.055 236.449 135.742 238.788C135.559 240.179 135.678 241.915 136.087 243.672C136.842 246.885 138.556 250.119 140.659 250.119ZM144.615 246.659C142.718 247.295 140.885 247.898 140.637 247.963C140.27 247.898 138.934 246.4 138.179 243.176C137.424 239.953 137.963 238.012 138.308 237.775C138.944 237.635 140.756 237.02 141.963 236.611C142.416 238.39 143.268 241.71 143.419 242.357C143.774 243.899 144.292 245.602 144.615 246.659Z" fill="#371A45"/>
<path d="M141.198 242.02C140.408 238.634 141.154 235.565 142.864 235.166C144.575 234.767 146.602 237.189 147.392 240.575C148.182 243.961 147.436 247.029 145.725 247.429C144.015 247.828 141.988 245.406 141.198 242.02Z" fill="#22A7F0"/>
<g opacity="0.8">
<path d="M147.375 240.578C147.429 240.805 147.472 241.02 147.504 241.236C146.534 238.756 144.906 237.161 143.494 237.495C141.898 237.872 141.133 240.578 141.693 243.705C141.489 243.187 141.316 242.627 141.176 242.034C140.389 238.648 141.133 235.576 142.847 235.177C144.55 234.767 146.588 237.182 147.375 240.578Z" fill="white"/>
</g>
<g opacity="0.3">
<path d="M147.44 240.869C148.13 244.136 147.375 247.047 145.704 247.435C143.99 247.834 141.963 245.408 141.176 242.023C140.766 240.255 140.766 238.573 141.111 237.301C141.133 237.398 141.154 237.495 141.176 237.581C141.974 240.966 144 243.392 145.704 242.993C146.523 242.81 147.116 242.012 147.44 240.869Z" fill="#371A45"/>
</g>
<path d="M145.327 248.556C145.531 248.556 145.747 248.535 145.952 248.481C148.313 247.931 149.38 244.427 148.421 240.33C147.461 236.233 144.96 233.56 142.599 234.109C140.238 234.659 139.171 238.163 140.13 242.26C141.003 246.001 143.16 248.556 145.327 248.556ZM143.224 236.201C144.098 236.201 145.639 237.883 146.329 240.826C147.052 243.931 146.297 246.195 145.467 246.389C144.637 246.583 142.955 244.891 142.232 241.786C141.51 238.681 142.265 236.417 143.095 236.223C143.127 236.201 143.181 236.201 143.224 236.201Z" fill="#371A45"/>
<path d="M132.055 265.676C132.077 265.676 132.098 265.676 132.12 265.676C132.713 265.644 133.166 265.126 133.133 264.533L132.357 252.092C132.325 251.585 131.947 251.165 131.441 251.089L127.613 250.529L125.5 238.616C125.392 238.034 124.832 237.635 124.25 237.742C123.667 237.85 123.268 238.411 123.376 238.993L125.63 251.672C125.716 252.124 126.072 252.48 126.535 252.545L130.276 253.095L130.999 264.663C131.02 265.234 131.494 265.676 132.055 265.676Z" fill="#371A45"/>
<path d="M78.2575 322.083C78.8828 322.083 79.4434 321.652 79.5728 321.016C79.7238 320.283 79.2602 319.571 78.5378 319.42C62.0966 315.949 59.3043 285.061 59.2828 284.759C59.2181 284.015 58.5604 283.465 57.8273 283.53C57.0834 283.595 56.5336 284.242 56.5983 284.985C56.7169 286.344 59.6062 318.18 77.988 322.062C78.0742 322.072 78.1713 322.083 78.2575 322.083Z" fill="#371A45"/>
<path d="M155.601 192.085C158.221 192.085 160.981 191.416 163.827 189.81C164.474 189.443 164.7 188.624 164.334 187.977C163.967 187.33 163.148 187.104 162.501 187.47C156.582 190.813 150.361 189.821 144.033 184.516C139.117 180.398 135.979 175.126 135.947 175.072C135.57 174.436 134.74 174.22 134.104 174.598C133.467 174.975 133.252 175.805 133.629 176.441C133.737 176.614 143.009 192.085 155.601 192.085Z" fill="#371A45"/>
<path d="M165.434 145.801C166.027 145.801 166.598 145.478 166.889 144.907C167.956 142.815 169.164 141.521 170.447 140.152C171.805 138.697 173.218 137.187 174.49 134.751C174.91 133.953 174.598 132.972 173.8 132.551C173.002 132.131 172.021 132.444 171.6 133.241C170.533 135.29 169.336 136.573 168.064 137.931C166.684 139.408 165.261 140.928 163.978 143.43C163.568 144.227 163.892 145.219 164.69 145.618C164.938 145.737 165.186 145.801 165.434 145.801Z" fill="#371A45"/>
<path d="M157.057 142.448C157.747 142.448 158.394 142.006 158.609 141.306C160.636 134.858 160.895 132.001 160.906 131.883C160.981 130.988 160.313 130.201 159.418 130.126C158.523 130.05 157.736 130.719 157.661 131.613C157.65 131.667 157.391 134.352 155.504 140.335C155.235 141.198 155.709 142.114 156.572 142.384C156.733 142.427 156.895 142.448 157.057 142.448Z" fill="#371A45"/>
<path d="M66.7972 271.1C84.5213 285.676 115.743 269.299 112.337 258.054C111.183 254.249 107.291 253.947 107.291 253.947C107.291 253.947 82.5591 270.42 65.7729 259.143C65.7729 259.143 60.6519 266.043 66.7972 271.1Z" fill="white"/>
<g opacity="0.3">
<path d="M66.7971 271.1C84.5212 285.676 115.754 269.299 112.336 258.054C111.873 256.545 110.989 255.586 110.083 254.982C110.471 268.135 77.3087 280.458 64.5546 264.394C64.3605 264.146 64.0802 263.995 63.8754 263.79C63.5304 266.032 63.9616 268.76 66.7971 271.1Z" fill="#371A45"/>
</g>
<path d="M84.0148 278.517C91.7772 278.517 99.6151 275.929 105.631 271.919C112.197 267.531 115.291 262.173 113.889 257.58C112.423 252.761 107.615 252.34 107.41 252.329C107.043 252.297 106.687 252.394 106.386 252.599C106.148 252.761 82.3545 268.329 66.6896 257.795C65.9672 257.31 64.9861 257.483 64.4686 258.173C62.3771 260.987 59.9621 267.585 65.7732 272.361C71.0343 276.684 77.4922 278.517 84.0148 278.517ZM107.636 255.661C108.466 255.866 110.159 256.513 110.774 258.529C111.711 261.623 109.049 265.72 103.82 269.213C93.9873 275.778 78.0205 278.236 67.8324 269.849C64.2962 266.949 65.3527 263.326 66.3122 261.407C70.5384 263.833 75.1312 264.76 79.6808 264.76C92.4672 264.749 104.844 257.418 107.636 255.661Z" fill="#371A45"/>
<path d="M11.2855 286.085C11.2855 286.085 12.4606 288.608 14.9187 289.492C16.1478 289.934 17.8188 290.161 19.6947 290.236C21.3658 290.301 23.1878 290.247 25.0098 290.117C29.0312 289.826 33.0525 289.179 35.3166 288.651C40.0926 287.53 44.9441 285.363 49.6015 282.495C55.9624 278.571 61.9675 273.342 66.916 267.682C71.5735 262.367 75.2929 256.674 77.5246 251.338L77.5893 245.246L77.6755 236.923L77.999 207.491L78.0745 200.807C77.9882 200.979 76.1015 204.709 72.8564 210.262C72.5437 210.79 72.2311 211.34 71.8969 211.89C68.1774 218.153 62.9917 226.282 56.868 234.174C47.3483 246.475 35.5753 258.195 23.6514 261.418C9.76534 265.17 2.55278 265.957 1.69029 270.852C0.817024 275.822 6.99459 277.601 6.99459 277.601C6.99459 277.601 5.65774 281.051 7.35037 283.649C8.70879 285.719 11.2855 286.085 11.2855 286.085Z" fill="white"/>
<g opacity="0.35">
<path d="M24.8909 272.868C24.8909 272.868 25.4299 273.45 26.6158 274.129C25.624 273.331 24.8909 272.868 24.8909 272.868Z" fill="#371A45"/>
</g>
<g opacity="0.35">
<path d="M19.7054 290.225C21.3764 290.29 23.1984 290.236 25.0205 290.107C29.0418 289.815 33.0632 289.169 35.3272 288.64C40.1032 287.519 44.9547 285.352 49.6122 282.484C55.973 278.56 61.9781 273.331 66.9266 267.671C71.5841 262.356 75.3036 256.664 77.5353 251.327C77.5568 249.419 75.1311 248.567 73.9667 250.087C67.9508 257.871 57.6872 270 50.162 272.932C36.8581 278.107 29.6348 275.822 26.6161 274.118C29.4946 276.382 34.6049 281.309 30.8315 285.277C29.3868 286.808 23.7052 289.481 19.7054 290.225Z" fill="#371A45"/>
</g>
<path d="M77.6104 200.559C74.5594 204.451 72.0043 208.59 69.4168 212.709C66.8185 216.816 64.2957 220.978 61.5573 224.989C58.8297 229.01 55.9081 232.891 52.8462 236.632C49.7736 240.373 46.5285 243.974 43.057 247.295C39.5854 250.626 35.8444 253.645 31.7907 256.081C29.7746 257.332 27.64 258.313 25.473 259.143C23.3383 259.887 20.9126 260.48 18.5623 261.084C16.2012 261.687 13.8186 262.27 11.4252 262.916C10.2285 263.24 9.03177 263.585 7.81351 263.984C6.60602 264.393 5.38776 264.846 4.15871 265.504C3.55498 265.838 2.94046 266.226 2.35828 266.722C1.7761 267.218 1.22626 267.833 0.827362 268.555C0.417679 269.277 0.158936 270.086 0.0726852 270.873C0.0403442 271.272 -0.0351257 271.66 0.0187836 272.07C0.0403442 272.479 0.07267 272.889 0.191261 273.288C0.245171 273.493 0.288292 273.687 0.352982 273.892L0.590157 274.463C0.741096 274.851 0.978279 275.164 1.18312 275.52C1.64671 276.156 2.175 276.727 2.75717 277.169C3.32858 277.643 3.94309 278.01 4.55762 278.344C4.87026 278.506 5.18292 278.657 5.50636 278.797C5.84057 278.937 6.13165 279.056 6.55212 279.174L5.4848 277.018C5.35542 277.352 5.30151 277.579 5.22604 277.848C5.16135 278.107 5.09668 278.377 5.05356 278.635C4.95653 279.164 4.89183 279.703 4.88105 280.252C4.8487 281.352 5.02122 282.527 5.51715 283.638C6.0023 284.748 6.86478 285.74 7.83509 286.387C8.32024 286.721 8.82693 286.991 9.35521 287.196C9.61395 287.303 9.8835 287.39 10.153 287.476C10.2932 287.519 10.4225 287.551 10.5735 287.584C10.7244 287.616 10.843 287.648 11.0586 287.681L9.80801 286.754C9.96973 287.077 10.0776 287.26 10.2285 287.497C10.3686 287.724 10.5196 287.939 10.6705 288.144C10.9831 288.565 11.3282 288.964 11.7163 289.33C12.4817 290.063 13.4628 290.71 14.5194 291.055C16.5031 291.68 18.3467 291.799 20.1687 291.853C23.8127 291.928 27.3489 291.594 30.8743 291.088C34.3674 290.602 38.0114 289.772 41.3428 288.414C41.7632 288.252 42.1945 288.101 42.6042 287.929L43.8332 287.368C44.6418 286.98 45.4827 286.635 46.2697 286.214L48.6308 284.931L49.2238 284.608L49.7952 284.252L50.9272 283.541C52.4689 282.624 53.892 281.557 55.3582 280.533C56.0805 280.015 56.7705 279.444 57.4713 278.894C58.1721 278.344 58.8728 277.794 59.5413 277.201L61.5573 275.444C62.215 274.84 62.8511 274.215 63.4872 273.601L64.4467 272.673L65.3739 271.714L67.2174 269.773L68.9747 267.757C69.2658 267.423 69.5785 267.1 69.8588 266.755L70.7105 265.72C71.2711 265.019 71.8641 264.35 72.3816 263.628C72.9099 262.906 73.4166 262.173 73.9233 261.429C75.8316 258.421 77.5134 255.154 78.0309 251.521C78.074 251.219 77.8584 250.928 77.5565 250.885C77.3517 250.852 77.1576 250.939 77.039 251.09L77.0282 251.1C74.8073 253.893 72.9853 256.685 71.034 259.488C69.0934 262.27 67.0881 265.04 64.8025 267.585L63.0344 269.439L62.1503 270.366L61.2231 271.25C60.5978 271.843 59.9941 272.436 59.3688 273.018L57.439 274.7C56.8029 275.272 56.1345 275.8 55.4552 276.328C54.776 276.846 54.1184 277.395 53.4284 277.902C52.0268 278.872 50.6684 279.907 49.2022 280.77L48.1241 281.449L47.585 281.783L47.0244 282.085L44.7927 283.304C44.0488 283.713 43.2618 284.026 42.5071 284.392L41.3535 284.921C40.9654 285.082 40.5665 285.223 40.1784 285.374C37.0411 286.646 33.8283 287.379 30.4215 287.864C27.047 288.349 23.6078 288.662 20.2657 288.597C18.6162 288.554 16.9343 288.403 15.5867 287.972C15.2633 287.864 15.0153 287.745 14.7458 287.573C14.4762 287.411 14.2175 287.206 13.9803 286.969C13.7324 286.743 13.5059 286.473 13.3011 286.193C13.1933 286.053 13.0963 285.913 13.01 285.762C12.9238 285.632 12.8159 285.438 12.7836 285.374L12.4171 284.64L11.533 284.446L11.339 284.403C11.2635 284.382 11.1772 284.36 11.091 284.339C10.9293 284.285 10.7568 284.231 10.595 284.166C10.2716 284.037 9.96974 283.875 9.68943 283.692C9.1396 283.314 8.76226 282.872 8.50351 282.301C8.24477 281.74 8.12617 281.061 8.15852 280.328C8.1693 279.961 8.20163 279.595 8.2771 279.217C8.30944 279.034 8.35258 278.84 8.3957 278.668C8.43883 278.495 8.50352 278.28 8.53586 278.183L9.15038 276.544L7.46851 276.026C7.29601 275.972 7.0157 275.865 6.7893 275.778C6.55212 275.671 6.31494 275.563 6.07776 275.444C5.61417 275.207 5.18292 274.927 4.80559 274.625C4.41747 274.323 4.1156 273.978 3.84608 273.633C3.74905 273.45 3.59811 273.288 3.5442 273.094L3.4256 272.814C3.39326 272.716 3.38248 272.619 3.35014 272.522C3.28545 272.339 3.28544 272.134 3.26388 271.929C3.22076 271.735 3.29623 271.509 3.29623 271.293C3.33936 270.862 3.46873 270.485 3.65201 270.151C4.01857 269.471 4.77325 268.868 5.70042 268.361C6.63838 267.854 7.71649 267.445 8.82694 267.067C9.9374 266.69 11.091 266.366 12.2553 266.054C14.5841 265.418 16.9667 264.835 19.3385 264.232C21.7212 263.617 24.0606 263.057 26.5511 262.194C28.9445 261.278 31.2732 260.2 33.4294 258.863C37.7742 256.254 41.6878 253.084 45.2779 249.645C52.4796 242.756 58.5818 234.918 64.2634 226.864C67.0988 222.832 69.8696 218.746 72.3492 214.477C74.8181 210.208 77.1253 205.841 78.5592 201.033C78.6454 200.742 78.4837 200.429 78.1926 200.343C77.9878 200.289 77.7506 200.375 77.6104 200.559Z" fill="#371A45"/>
<path d="M139.548 150.588C150.847 234.864 34.3892 254.733 14.8323 175.201C1.22653 89.211 121.619 68.7915 139.548 150.588Z" fill="white"/>
<path d="M139.548 150.588C150.847 234.864 34.3892 254.733 14.8323 175.201C1.22653 89.211 121.619 68.7915 139.548 150.588Z" fill="white"/>
<g opacity="0.35">
<path d="M56.8895 234.185C62.2046 235.791 67.703 236.697 73.2229 236.912C74.7107 236.966 76.2093 236.977 77.6971 236.934C95.335 236.438 112.757 228.999 124.595 215.447C128.271 211.242 131.409 206.445 133.856 201.087C131.829 197.432 129.522 193.648 126.945 189.734C125.587 187.686 124.164 185.605 122.644 183.492L78.0205 207.501L78.096 200.817C78.0097 200.99 76.123 204.72 72.8779 210.272L71.5949 210.962C71.7028 211.275 71.8106 211.587 71.9184 211.911C68.1989 218.153 63.0024 226.293 56.8895 234.185Z" fill="#371A45"/>
</g>
<path d="M139.548 150.588C150.847 234.864 34.3892 254.733 14.8323 175.201C1.22653 89.211 121.619 68.7915 139.548 150.588Z" fill="white"/>
<path d="M76.4465 226.627C80.7051 226.627 85.0067 226.228 89.2976 225.409C105.243 222.39 119.204 213.992 128.606 201.755C139.182 187.988 143.365 170.253 140.702 150.437L140.68 150.34C136.433 130.955 126.18 115.883 111.043 106.752C97.5344 98.6121 81.1256 95.8198 64.8353 98.8817C48.5774 101.943 34.4434 110.514 25.0314 122.999C14.412 137.079 10.4877 155.191 13.6897 175.384L13.7113 175.481C18.3472 194.359 28.7293 209.011 43.7151 217.84C53.5151 223.63 64.8245 226.627 76.4465 226.627ZM138.406 150.793C144.066 193.206 117.609 217.679 88.8664 223.123C84.8989 223.878 80.7913 224.266 76.6406 224.266C51.4452 224.266 24.5894 209.895 15.9861 174.975C9.19397 131.937 36.772 106.547 65.2773 101.178C94.0521 95.7551 129.209 108.962 138.406 150.793Z" fill="#371A45"/>
<g opacity="0.35">
<path d="M139.549 150.588C150.578 223.209 57.1701 254.043 21.5385 193.109C38.8961 208.235 45.5911 204.084 62.1078 205.701C114.321 212.579 142.114 155.073 119.399 114.708C130.072 124.228 137.026 136.95 139.549 150.588Z" fill="#371A45"/>
</g>
<path d="M76.4463 227.091C80.7372 227.091 85.0604 226.692 89.3837 225.872C105.448 222.832 119.506 214.369 128.972 202.046C139.624 188.182 143.839 170.317 141.165 150.383L141.144 150.254C136.864 130.74 126.546 115.56 111.291 106.364C97.6851 98.1594 81.1577 95.3455 64.7596 98.4397C48.3939 101.523 34.152 110.159 24.6647 122.73C13.9698 136.917 10.0131 155.148 13.2259 175.471L13.2582 175.6C17.9265 194.607 28.3841 209.356 43.4777 218.25C53.3532 224.083 64.7381 227.091 76.4463 227.091ZM137.942 150.879C143.548 192.979 117.296 217.269 88.7799 222.67C60.9107 227.953 26.4004 215.242 16.4387 174.889C9.71124 132.174 37.0737 106.968 65.3633 101.642C93.9225 96.2511 128.81 109.372 137.942 150.879Z" fill="#293856"/>
<path d="M76.4463 227.091C80.7372 227.091 85.0604 226.692 89.3837 225.872C105.448 222.832 119.506 214.369 128.972 202.046C139.624 188.182 143.839 170.317 141.165 150.383L141.144 150.254C136.864 130.74 126.546 115.56 111.291 106.364C97.6851 98.1594 81.1577 95.3455 64.7596 98.4397C48.3939 101.523 34.152 110.159 24.6647 122.73C13.9698 136.917 10.0131 155.148 13.2259 175.471L13.2582 175.6C17.9265 194.607 28.3841 209.356 43.4777 218.25C53.3532 224.083 64.7381 227.091 76.4463 227.091ZM137.942 150.879C143.548 192.979 117.296 217.269 88.7799 222.67C60.9107 227.953 26.4004 215.242 16.4387 174.889C9.71124 132.174 37.0737 106.968 65.3633 101.642C93.9225 96.2511 128.81 109.372 137.942 150.879Z" fill="#371A45"/>
<path d="M140.432 166.857C117.598 237.936 26.9504 218.142 34.4649 153.218C47.3159 80.9958 142.675 90.9468 140.432 166.857Z" fill="#371A45"/>
<path d="M123.894 122.395C168.948 172.635 100.574 240.955 51.8438 201.787C99.0867 208.385 132.077 158.814 123.894 122.395Z" fill="#21102B"/>
<path d="M84.8018 220.223C90.1708 220.223 95.5721 219.512 100.844 218.089C114.191 214.488 125.565 206.477 132.842 195.545C141.047 183.233 143.915 167.601 141.155 150.329V150.319C136.357 121.77 107.819 93.6639 72.9749 97.3294L72.7054 97.3834C56.178 102.041 41.8499 114.105 33.3867 130.481C24.9559 146.804 23.4034 165.369 29.1282 181.401C35.0686 196.785 45.634 208.31 59.7034 214.779C67.5736 218.391 76.1446 220.223 84.8018 220.223ZM137.942 150.858C144.044 188.958 121.317 209.194 100.003 214.951C75.5085 221.56 44.3511 211.771 32.19 180.269C26.7887 165.121 28.2765 147.505 36.2976 131.98C44.3187 116.444 57.8598 104.995 73.4601 100.564C106.407 97.1785 133.392 123.808 137.942 150.858Z" fill="#371A45"/>
<path d="M85.1036 213.431C94.7958 213.431 104.369 210.876 112.897 205.917C126.341 198.089 136.4 184.753 141.996 167.353L142.071 167.137L142.082 166.911C142.621 148.69 137.618 132.875 127.635 121.199C118.698 110.741 106.245 104.208 92.5857 102.795C79.2279 101.415 66.0534 105.092 55.4987 113.145C43.7472 122.104 35.9309 135.861 32.8907 152.938L32.8799 153.035C31.1226 168.172 34.4971 181.907 42.626 192.764C49.9895 202.585 60.9216 209.485 73.4061 212.191C77.2657 213.021 81.1901 213.431 85.1036 213.431ZM138.815 166.576C127.01 202.995 97.8145 214.132 74.0745 208.989C52.5123 204.321 32.4163 185.346 36.0927 153.445C42.529 117.35 68.9211 103.625 92.2299 106.03C115.409 108.423 139.839 128.39 138.815 166.576Z" fill="#371A45"/>
<path d="M31.8556 219.76C54.6361 239.263 76.0905 218.078 56.221 197.27C33.1063 175.956 10.1641 198.596 31.8556 219.76Z" fill="white"/>
<g opacity="0.35">
<path d="M60.3287 223.479C66.8082 217.172 64.5118 204.558 55.1215 196.224C59.4231 209.787 34.9392 202.574 30.1524 198.553C16.5359 218.207 48.6744 235.317 60.3287 223.479Z" fill="#371A45"/>
</g>
<path d="M49.6878 229.107C54.7118 229.107 58.9165 227.209 61.6872 224.288C67.2934 218.369 68.1451 207.372 57.4179 196.138L57.3424 196.063C44.8471 184.548 31.9205 185.26 25.6028 191.923C19.9104 197.928 19.0802 209.571 30.7238 220.924L30.7993 220.999C37.5699 226.8 44.1355 229.107 49.6878 229.107ZM55.0784 198.435C64.2854 208.105 63.8434 217.258 59.3046 222.045C54.507 227.112 44.211 228.18 32.9555 218.552C22.9291 208.752 23.3388 199.038 27.9531 194.165C33.1711 188.678 44.1571 188.387 55.0784 198.435Z" fill="#371A45"/>
<path d="M32.0605 221.776C50.5394 237.559 66.8835 221.959 50.8089 205.13C31.9527 187.578 14.207 204.547 32.0605 221.776Z" fill="white"/>
<path d="M46.9279 229.959C50.7767 229.959 53.9464 228.557 56.0164 226.368C60.3072 221.83 60.7277 213.162 51.995 204.008L51.9303 203.944C41.505 194.241 31.0257 194.478 26.0449 199.728C21.6354 204.386 21.2796 213.647 30.9287 222.962L31.0042 223.026C36.8152 227.986 42.3567 229.959 46.9279 229.959ZM49.6663 206.283C56.8896 213.873 56.8788 220.708 53.6445 224.115C50.1299 227.824 42.2273 228.288 33.1496 220.557C25.1285 212.795 25.0638 205.475 28.4059 201.949C32.2763 197.885 40.815 198.068 49.6663 206.283Z" fill="#371A45"/>
<g opacity="0.5">
<path d="M52.6416 184.796C63.1963 191.718 71.2498 179.848 63.1316 172.323C52.3613 163.417 42.6475 177.26 52.6416 184.796Z" fill="white"/>
</g>
<g opacity="0.5">
<path d="M70.7215 194.359C74.9154 196.774 78.5378 191.642 74.2254 188.602C70.0315 186.187 66.4091 191.308 70.7215 194.359Z" fill="white"/>
</g>
<g opacity="0.5">
<path d="M123.118 131.969C98.3104 90.6018 56.8354 117.964 52.0486 135.354C77.4705 116.455 100.779 122.18 123.118 131.969Z" fill="white"/>
</g>
<g opacity="0.35">
<path d="M55.2832 208.472C53.4073 205.615 50.7444 203.265 47.7365 201.593C55.0461 216.719 37.9796 221.894 27.5219 215.512C40.4053 236.104 66.2476 228.751 55.2832 208.472Z" fill="#371A45"/>
</g>
<path d="M40.0171 185.778C40.0495 185.778 40.071 185.778 40.1033 185.778C42.6693 185.648 43.6827 184.505 44.0816 183.567C45.1597 181.045 42.734 177.907 41.9577 177.002C41.3755 176.312 40.3405 176.236 39.6613 176.818C38.9821 177.401 38.8959 178.436 39.4781 179.115C40.5023 180.322 41.2138 181.864 41.0844 182.274C41.0844 182.263 40.8257 182.468 39.9309 182.511C39.036 182.554 38.3353 183.33 38.3892 184.225C38.4323 185.109 39.1546 185.778 40.0171 185.778Z" fill="#371A45"/>
<path d="M26.4112 261.364C16.4063 264.523 10.1425 269.278 10.8001 272.059C11.2853 274.097 13.5493 276.425 17.754 275.293C20.6217 274.517 23.91 272.145 23.91 272.145C23.91 272.145 29.1388 276.253 33.365 276.522" fill="white"/>
<path d="M25.915 259.812C23.0364 260.728 20.201 261.838 17.4734 263.24C16.1149 263.952 14.7781 264.728 13.4844 265.655C12.8375 266.119 12.2122 266.615 11.6085 267.186C11.0047 267.757 10.4225 268.383 9.90503 269.191C9.64629 269.601 9.41988 270.064 9.25817 270.625C9.1827 270.905 9.12879 271.218 9.11801 271.552C9.11801 271.725 9.10722 271.886 9.13956 272.07C9.16113 272.231 9.19349 272.458 9.23661 272.555C9.50614 273.558 9.99128 274.442 10.6813 275.175C11.3605 275.908 12.223 276.468 13.1394 276.803C14.0558 277.148 15.0153 277.255 15.9209 277.234C17.7537 277.202 19.3816 276.587 20.8263 275.951C22.2925 275.283 23.597 274.528 24.9015 273.568L22.8316 273.525C23.2413 273.838 23.6078 274.075 24.0067 274.323C24.4056 274.571 24.7937 274.819 25.2034 275.035C26.0228 275.477 26.8529 275.886 27.7262 276.22C28.1575 276.393 28.5995 276.555 29.0631 276.673C29.2895 276.738 29.5159 276.803 29.7423 276.867L30.4431 277.007C31.381 277.18 32.3621 277.245 33.3216 277.094C33.6235 277.051 33.8283 276.76 33.7852 276.458C33.7529 276.253 33.6127 276.08 33.4186 276.016L33.3863 276.005C32.5885 275.725 31.8446 275.369 31.1115 274.991C30.3784 274.603 29.6776 274.161 28.9768 273.719C28.276 273.266 27.5861 272.792 26.9176 272.296C26.2492 271.811 25.5484 271.283 24.9555 270.808L23.9959 270.043L22.8855 270.776C21.775 271.509 20.546 272.264 19.3601 272.878C18.1526 273.493 16.9451 273.935 15.8131 273.967C14.6811 274.021 13.7108 273.655 13.0639 272.954C12.7297 272.609 12.5033 272.167 12.3847 271.746C12.3523 271.671 12.3847 271.703 12.3739 271.692C12.3631 271.692 12.3847 271.671 12.3739 271.66C12.3739 271.628 12.3847 271.574 12.4062 271.498C12.4494 271.347 12.5356 271.143 12.6758 270.927C13.2472 270.032 14.2929 269.105 15.3926 268.318C16.5031 267.52 17.7213 266.809 18.9719 266.162C21.4839 264.868 24.1684 263.822 26.896 262.949H26.9068C27.7693 262.679 28.2437 261.763 27.9634 260.901C27.6939 260.016 26.7775 259.542 25.915 259.812Z" fill="#371A45"/>
<path d="M60.3068 275.746C60.9106 275.746 61.4604 275.336 61.6113 274.722C65.7189 258.41 44.7928 248.47 43.898 248.049C43.2188 247.737 42.421 248.028 42.1083 248.707C41.7957 249.386 42.0868 250.184 42.7552 250.497C42.9492 250.594 62.5601 259.919 58.9915 274.064C58.8083 274.787 59.2503 275.52 59.9726 275.703C60.0912 275.735 60.199 275.746 60.3068 275.746Z" fill="#371A45"/>
<path d="M6.75734 278.927C8.06186 279.315 9.46339 279.498 10.8973 279.455C12.3312 279.412 13.7112 279.078 14.9725 278.743C16.2339 278.398 17.4522 278.053 18.7028 277.741C19.9534 277.417 21.2256 277.158 22.5085 276.846C22.6163 276.824 22.681 276.716 22.6487 276.609C22.6271 276.533 22.5624 276.469 22.487 276.458C21.1717 276.264 19.8456 276.156 18.5088 276.145C17.1719 276.134 15.835 276.221 14.5305 276.35C13.2368 276.479 12.0293 276.544 10.8649 276.533C9.68979 276.512 8.50387 276.361 7.25326 276.274H7.2317C6.4878 276.221 5.84095 276.781 5.78704 277.536C5.7547 278.183 6.16438 278.754 6.75734 278.927Z" fill="#371A45"/>
<path d="M10.8757 287.357C11.4902 287.638 12.2018 287.767 12.8702 287.756C13.5494 287.756 14.1747 287.627 14.7569 287.455C15.9105 287.11 16.8377 286.56 17.7433 286.096C19.5114 285.158 21.4088 284.296 23.2955 283.325C23.3926 283.271 23.4357 283.153 23.3818 283.056C23.3494 282.991 23.274 282.948 23.2093 282.948C22.1312 282.937 21.0638 283.034 20.0073 283.174C18.9507 283.325 17.8942 283.53 16.8484 283.821C15.8134 284.112 14.8431 284.425 13.9914 284.63C13.1182 284.835 12.4497 284.878 11.7274 284.792L11.6196 284.781C10.8757 284.695 10.2073 285.223 10.1102 285.956C10.0132 286.56 10.3474 287.12 10.8757 287.357Z" fill="#371A45"/>
<path d="M37.1707 297.923C37.3109 299.324 37.6667 300.661 38.1195 301.977C38.583 303.292 39.1437 304.575 39.8336 305.804C40.5236 307.033 41.2891 308.23 42.2271 309.297C43.1435 310.386 44.2108 311.345 45.3967 312.143C46.1514 312.65 47.1648 312.445 47.6715 311.69C48.092 311.054 48.0165 310.246 47.5421 309.696L47.4775 309.62C46.6365 308.672 45.7201 307.841 44.8577 306.914C43.9844 306.019 43.1003 305.103 42.2702 304.133C41.4293 303.162 40.6207 302.149 39.8552 301.093C39.079 300.036 38.3351 298.936 37.6343 297.793L37.6235 297.783C37.5588 297.675 37.4079 297.632 37.3001 297.707C37.2031 297.75 37.1599 297.837 37.1707 297.923Z" fill="#371A45"/>
<path d="M142.783 87.81L170.339 83.5407L189.476 103.82C193.314 107.895 200.149 105.793 201.044 100.273L205.496 72.7488L230.703 60.8249C235.759 58.4315 235.867 51.2836 230.897 48.7285L216.838 41.5051C216.838 41.4943 216.827 41.5051 216.827 41.5051L206.089 35.9852L202.532 8.33164C201.82 2.79015 195.06 0.461433 191.093 4.40732L171.309 24.0613L143.904 18.8971C138.416 17.8621 134.115 23.5761 136.637 28.5678L149.208 53.4614L138.222 73.5466L135.829 77.9237C133.144 82.8076 137.252 88.6617 142.783 87.81Z" fill="#FFDA22"/>
<g opacity="0.7">
<path d="M145.65 24.7297L173.056 29.8938L192.839 10.2399C195.966 7.1349 200.849 7.92192 203.113 11.1239L202.542 6.70366C201.831 1.16216 195.071 -1.16656 191.103 2.77933L171.32 22.4333L143.914 17.2691C138.427 16.2342 134.125 21.9482 136.648 26.9398L137.931 29.4841C138.847 26.3684 141.985 24.0397 145.65 24.7297Z" fill="white"/>
</g>
<g opacity="0.35">
<path d="M142.783 87.8102L170.339 83.5409L189.476 103.82C193.314 107.895 200.149 105.793 201.044 100.273L205.496 72.749L230.703 60.8251C235.759 58.4317 235.867 51.2838 230.897 48.7287L216.838 41.5053C222.153 46.0873 227.048 52.2002 221.452 56.0814C217.787 58.6257 210.014 60.2752 204.159 61.2132C199.825 61.9032 196.408 65.2669 195.621 69.5793C194.392 76.3283 192.171 85.3629 189.001 86.096C185.411 86.9369 179.654 79.692 175.633 73.8055C172.883 69.7842 167.741 68.1778 163.202 69.9674C154.674 73.3312 141.812 77.4819 138.211 73.5252L135.818 77.9023C133.144 82.8077 137.252 88.6619 142.783 87.8102Z" fill="#371A45"/>
</g>
<path d="M194.349 108.38C195.254 108.38 196.171 108.251 197.066 107.971C200.429 106.936 202.866 104.143 203.427 100.672L207.685 74.4091L231.748 63.0135C234.929 61.5041 236.934 58.3884 236.999 54.8738C237.053 51.3591 235.145 48.1787 232.018 46.5615L208.353 34.4004L204.957 8.00826C204.505 4.51518 202.165 1.64741 198.834 0.504613C195.502 -0.638185 191.891 0.191958 189.389 2.67161L170.501 21.42L144.346 16.493C140.885 15.8461 137.425 17.183 135.311 19.9969C133.198 22.8107 132.875 26.5087 134.46 29.646L146.459 53.3967L133.694 76.7486C132.012 79.832 132.217 83.5407 134.233 86.4193C136.249 89.2978 139.667 90.7533 143.139 90.2142L169.434 86.1498L187.708 105.491C189.476 107.367 191.88 108.38 194.349 108.38ZM195.815 4.8494C196.289 4.8494 196.775 4.92487 197.249 5.09736C198.845 5.6472 199.923 6.9625 200.127 8.63357L203.847 37.5593L229.797 50.8847C231.296 51.6502 232.169 53.1164 232.147 54.7983C232.115 56.4801 231.199 57.914 229.679 58.6364L203.319 71.1101L198.65 99.8957C198.381 101.556 197.26 102.839 195.653 103.335C194.047 103.831 192.397 103.389 191.244 102.17L171.234 80.9533L142.416 85.4166C140.756 85.6754 139.182 85.007 138.222 83.627C137.263 82.247 137.166 80.5436 137.964 79.0666L151.957 53.483L138.815 27.4574C138.061 25.9588 138.212 24.2554 139.214 22.9078C140.228 21.5601 141.812 20.9456 143.473 21.2583L172.129 26.6596L192.818 6.11079C193.648 5.28064 194.705 4.8494 195.815 4.8494Z" fill="#371A45"/>
</svg>
