<svg width="199" height="202" viewBox="0 0 199 202" fill="none" xmlns="http://www.w3.org/2000/svg">
<path d="M173.56 155.981C185.032 140.249 191.694 120.792 191.285 99.8149C190.333 48.9047 148.415 8.4263 97.6454 9.35965C46.8757 10.293 6.43625 52.4273 7.38783 103.338C8.33941 154.248 50.2577 194.726 101.075 193.752C115.184 193.472 128.499 190.025 140.386 184.112L181.99 197.201L173.56 155.981Z" fill="#F2F2F2"/>
<g opacity="0.5">
<path d="M98.1484 27.1061C145.604 26.2054 185.307 61.4951 191.073 107.628C191.346 104.374 191.486 101.109 191.411 97.782C190.504 46.8755 148.541 6.39346 97.7681 7.37078C46.9948 8.3481 6.60653 50.3982 7.55811 101.308C7.63304 104.635 7.88704 107.933 8.27994 111.154C12.3323 64.8246 50.6932 28.0068 98.1484 27.1061Z" fill="white"/>
</g>
<g opacity="0.15">
<path d="M174.16 155.146C147.298 174.329 111.921 180.757 78.3037 169.31C41.0368 156.629 15.4044 125.217 8.27268 89.0656C7.61969 93.7044 7.35031 98.5081 7.43172 103.341C8.33945 154.248 50.2577 194.726 101.075 193.752C115.184 193.472 128.499 190.025 140.386 184.112L181.99 197.201L173.604 155.985C173.761 155.688 173.962 155.395 174.16 155.146Z" fill="#371A45"/>
</g>
<g filter="url(#filter0_f_1_1965)">
<path d="M72.1665 102.836C71.8704 106.377 71.9386 111.867 76.244 117.164C80.0711 121.872 93.1354 132.838 93.6138 133.426C94.1149 133.742 94.6161 134.059 95.14 134.102C95.664 134.146 96.2107 133.918 96.7574 133.689C97.3269 133.188 112.009 124.818 116.588 120.539C121.713 116.031 122.693 110.628 122.989 107.088C123.672 98.9175 117.932 91.8553 110.073 91.1979C105.881 90.8472 101.485 92.9477 98.546 96.5413C96.2452 92.5094 92.2587 89.7077 87.5433 89.3132C79.9461 88.6776 72.85 94.6659 72.1665 102.836Z" fill="#FFED60"/>
</g>
<g clip-path="url(#clip0_1_1965)">
<path opacity="0.1" d="M100.971 139.608C114.23 140.717 125.131 139.798 125.318 137.556C125.506 135.314 114.91 132.598 101.651 131.488C88.3918 130.379 77.4913 131.298 77.3038 133.54C77.1162 135.782 87.7126 138.499 100.971 139.608Z" fill="black"/>
<path d="M107.038 63.8497C112.744 64.327 118.977 84.5851 119.806 85.1986C120.637 85.799 141.568 90.0719 142.98 94.2515C144.392 98.4311 126.904 111.635 126.418 112.589C125.931 113.544 128.262 134.604 124.698 137.04C121.133 139.476 102.898 127.266 101.728 127.168C100.557 127.07 81.3229 136.199 77.4366 133.086C73.5503 129.974 80.005 109.835 79.8027 108.69C79.6004 107.545 64.2148 93.0246 66.5173 87.855C68.821 82.6722 90.0735 83.2688 90.8734 82.7783C91.7137 82.2911 101.332 63.3724 107.038 63.8497Z" fill="#FFBD39"/>
<path d="M106.834 66.2881C112.163 66.7339 117.546 86.297 118.326 86.8534C119.092 87.4218 139.019 90.7347 140.348 94.6153C141.662 98.5079 125.039 110.443 124.585 111.334C124.131 112.225 126.631 132.238 123.31 134.508C119.977 136.778 103.016 125.046 101.94 124.956C100.85 124.865 82.8981 133.729 79.279 130.825C75.6598 127.921 82.388 109.211 82.1925 108.146C81.9981 107.068 66.9413 93.4783 69.0929 88.6545C71.2446 83.8306 91.7054 85.1441 92.4616 84.6897C93.2044 84.2342 101.518 65.8434 106.834 66.2881Z" fill="url(#paint0_linear_1_1965)"/>
<path d="M74.1018 90.3344C74.0755 86.7618 86.1056 85.8304 86.2303 90.0085C86.3406 94.1986 74.1289 95.1945 74.1018 90.3344Z" fill="white"/>
<path d="M89.3642 89.1557C89.5012 86.871 93.0481 87.0748 93.053 88.9599C93.0403 91.056 89.2406 91.2823 89.3642 89.1557Z" fill="white"/>
<path d="M85.0514 95.1924C83.9993 94.162 86.0298 90.1377 90.5379 90.5148C95.046 90.8919 96.2899 95.1371 95.2787 96.048C94.3985 96.8503 93.6993 93.2215 90.4427 92.949C87.1872 92.6634 85.9407 96.0632 85.0514 95.1924Z" fill="#541300"/>
<path d="M112.786 97.5126C111.734 96.4822 113.765 92.4578 118.273 92.835C122.781 93.2121 124.025 97.4573 123.014 98.3681C122.133 99.1705 121.434 95.5416 118.178 95.2692C114.922 94.9836 113.676 98.3833 112.786 97.5126Z" fill="#541300"/>
<g opacity="0.6">
<g opacity="0.6">
<path d="M92.6513 102.995C92.4594 105.289 90.2439 106.988 87.7006 106.776C85.1572 106.563 83.2537 104.532 83.4467 102.225C83.6385 99.932 85.854 98.2326 88.3974 98.4454C90.9397 98.6714 92.8431 100.702 92.6513 102.995Z" fill="#FF5F82"/>
</g>
<g opacity="0.6">
<path d="M123.185 105.55C122.993 107.843 120.778 109.543 118.235 109.33C115.691 109.117 113.788 107.086 113.981 104.78C114.173 102.486 116.388 100.787 118.931 101C121.474 101.226 123.377 103.256 123.185 105.55Z" fill="#FF5F82"/>
</g>
</g>
<path d="M98.8131 102.396C99.6734 101.831 108.622 102.58 109.39 103.281C110.145 103.981 108.13 111.537 103.528 111.152C98.9113 110.779 97.9527 102.961 98.8131 102.396Z" fill="#872A2A"/>
<path d="M103.866 107.278C103.472 107.285 101.946 105.605 100.821 106.254C99.6974 106.89 101.422 110.246 103.66 110.38C105.899 110.514 107.668 107.504 106.796 106.754C105.91 106.003 104.625 107.275 103.866 107.278Z" fill="#F982B3"/>
</g>
<defs>
<filter id="filter0_f_1_1965" x="41.0635" y="58.267" width="112.981" height="106.841" filterUnits="userSpaceOnUse" color-interpolation-filters="sRGB">
<feFlood flood-opacity="0" result="BackgroundImageFix"/>
<feBlend mode="normal" in="SourceGraphic" in2="BackgroundImageFix" result="shape"/>
<feGaussianBlur stdDeviation="15.5" result="effect1_foregroundBlur_1_1965"/>
</filter>
<linearGradient id="paint0_linear_1_1965" x1="87.6231" y1="81.71" x2="124.405" y2="135.406" gradientUnits="userSpaceOnUse">
<stop offset="0.0483871" stop-color="#FFF466"/>
<stop offset="0.2848" stop-color="#FFED60"/>
<stop offset="0.6222" stop-color="#FFDA51"/>
<stop offset="0.8602" stop-color="#FFC943"/>
</linearGradient>
<clipPath id="clip0_1_1965">
<rect width="77" height="76" fill="white" transform="translate(68.672 60.6402) rotate(4.78193)"/>
</clipPath>
</defs>
</svg>
